<?xml version="1.0" encoding="UTF-8" standalone="no"?>
<svg
   xmlns:dc="http://purl.org/dc/elements/1.1/"
   xmlns:cc="http://creativecommons.org/ns#"
   xmlns:rdf="http://www.w3.org/1999/02/22-rdf-syntax-ns#"
   xmlns:svg="http://www.w3.org/2000/svg"
   xmlns="http://www.w3.org/2000/svg"
   xmlns:xlink="http://www.w3.org/1999/xlink"
   xmlns:sodipodi="http://sodipodi.sourceforge.net/DTD/sodipodi-0.dtd"
   xmlns:inkscape="http://www.inkscape.org/namespaces/inkscape"
   width="793.70081"
   height="1122.5197"
   viewBox="0 0 210 297"
   version="1.1"
   id="svg8"
   inkscape:version="1.0.2-2 (e86c870879, 2021-01-15)"
   sodipodi:docname="builder_cubes.svg"
   inkscape:export-filename="D:\alexys\programmation\unity\Digital_world_2\Digital_world\Assets\Textures\MyTextures\Cubes\DeathCubes\previsualisation_focus.png"
   inkscape:export-xdpi="96"
   inkscape:export-ydpi="96">
  <defs
     id="defs2">
    <linearGradient
       inkscape:collect="always"
       id="linearGradient957">
      <stop
         style="stop-color:#ffffff;stop-opacity:1"
         offset="0"
         id="stop953" />
      <stop
         style="stop-color:#000000;stop-opacity:1"
         offset="1"
         id="stop955" />
    </linearGradient>
    <linearGradient
       inkscape:collect="always"
       id="linearGradient951">
      <stop
         style="stop-color:#ffffff;stop-opacity:1"
         offset="0"
         id="stop947" />
      <stop
         style="stop-color:#000000;stop-opacity:1"
         offset="1"
         id="stop949" />
    </linearGradient>
    <linearGradient
       inkscape:collect="always"
       id="linearGradient945">
      <stop
         style="stop-color:#ffffff;stop-opacity:1"
         offset="0"
         id="stop941" />
      <stop
         style="stop-color:#000000;stop-opacity:1"
         offset="1"
         id="stop943" />
    </linearGradient>
    <linearGradient
       inkscape:collect="always"
       id="linearGradient925">
      <stop
         style="stop-color:#ffffff;stop-opacity:1"
         offset="0"
         id="stop921" />
      <stop
         style="stop-color:#000000;stop-opacity:1"
         offset="1"
         id="stop923" />
    </linearGradient>
    <linearGradient
       inkscape:collect="always"
       id="linearGradient861">
      <stop
         style="stop-color:#000000;stop-opacity:1;"
         offset="0"
         id="stop857" />
      <stop
         style="stop-color:#000000;stop-opacity:0;"
         offset="1"
         id="stop859" />
    </linearGradient>
    <linearGradient
       inkscape:collect="always"
       xlink:href="#linearGradient861"
       id="linearGradient867"
       gradientUnits="userSpaceOnUse"
       x1="-301.3938"
       y1="409.2532"
       x2="-195.56046"
       y2="409.2532"
       gradientTransform="matrix(0.0625,0,0,0.99999999,-282.5567,4.6333984e-5)" />
    <linearGradient
       inkscape:collect="always"
       xlink:href="#linearGradient861"
       id="linearGradient883"
       gradientUnits="userSpaceOnUse"
       gradientTransform="matrix(0,0.0625,-0.99999999,0,160.77599,375.17366)"
       x1="-301.3938"
       y1="409.2532"
       x2="-195.56046"
       y2="409.2532" />
    <linearGradient
       inkscape:collect="always"
       xlink:href="#linearGradient861"
       id="linearGradient887"
       gradientUnits="userSpaceOnUse"
       gradientTransform="matrix(-0.0625,0,0,-0.99999999,-214.39758,818.50638)"
       x1="-301.3938"
       y1="409.2532"
       x2="-195.56046"
       y2="409.2532" />
    <linearGradient
       inkscape:collect="always"
       xlink:href="#linearGradient861"
       id="linearGradient891"
       gradientUnits="userSpaceOnUse"
       gradientTransform="matrix(0,-0.0625,0.99999999,0,-657.73032,443.33279)"
       x1="-301.3938"
       y1="409.2532"
       x2="-195.56046"
       y2="409.2532" />
    <linearGradient
       inkscape:collect="always"
       xlink:href="#linearGradient861"
       id="linearGradient869"
       gradientUnits="userSpaceOnUse"
       gradientTransform="matrix(0.06249996,0,0,0.99999999,-456.78304,-103.7757)"
       x1="-301.3938"
       y1="409.2532"
       x2="-195.56046"
       y2="409.2532" />
    <linearGradient
       inkscape:collect="always"
       xlink:href="#linearGradient861"
       id="linearGradient871"
       gradientUnits="userSpaceOnUse"
       gradientTransform="matrix(0,0.06249995,-0.99999999,0,-13.45034,271.39789)"
       x1="-301.3938"
       y1="409.2532"
       x2="-195.56046"
       y2="409.2532" />
    <linearGradient
       inkscape:collect="always"
       xlink:href="#linearGradient861"
       id="linearGradient873"
       gradientUnits="userSpaceOnUse"
       gradientTransform="matrix(-0.0625,0,0,-0.99999999,-388.62391,714.73063)"
       x1="-301.3938"
       y1="409.2532"
       x2="-195.56046"
       y2="409.2532" />
    <linearGradient
       inkscape:collect="always"
       xlink:href="#linearGradient861"
       id="linearGradient875"
       gradientUnits="userSpaceOnUse"
       gradientTransform="matrix(0,-0.0625,0.99999999,0,-831.95665,339.55704)"
       x1="-301.3938"
       y1="409.2532"
       x2="-195.56046"
       y2="409.2532" />
    <linearGradient
       inkscape:collect="always"
       xlink:href="#linearGradient951"
       id="linearGradient927"
       x1="-286.45227"
       y1="400.62775"
       x2="-286.45227"
       y2="421.09213"
       gradientUnits="userSpaceOnUse" />
    <linearGradient
       inkscape:collect="always"
       xlink:href="#linearGradient945"
       id="linearGradient931"
       gradientUnits="userSpaceOnUse"
       x1="-286.45227"
       y1="400.62775"
       x2="-286.45227"
       y2="421.09213"
       gradientTransform="rotate(90,-286.45226,453.54492)" />
    <linearGradient
       inkscape:collect="always"
       xlink:href="#linearGradient957"
       id="linearGradient935"
       gradientUnits="userSpaceOnUse"
       gradientTransform="rotate(180,-286.45225,453.54491)"
       x1="-286.45227"
       y1="400.62775"
       x2="-286.45227"
       y2="421.09213" />
    <linearGradient
       inkscape:collect="always"
       xlink:href="#linearGradient925"
       id="linearGradient939"
       gradientUnits="userSpaceOnUse"
       gradientTransform="rotate(-90,-286.45227,453.54489)"
       x1="-286.45227"
       y1="400.62775"
       x2="-286.45227"
       y2="421.09213" />
  </defs>
  <sodipodi:namedview
     id="base"
     pagecolor="#ffffff"
     bordercolor="#666666"
     borderopacity="1.0"
     inkscape:pageopacity="0.0"
     inkscape:pageshadow="2"
     inkscape:zoom="0.90509668"
     inkscape:cx="-5311.2793"
     inkscape:cy="1149.9545"
     inkscape:document-units="px"
     inkscape:current-layer="layer1"
     showgrid="false"
     inkscape:window-width="1920"
     inkscape:window-height="1017"
     inkscape:window-x="-8"
     inkscape:window-y="-8"
     inkscape:window-maximized="1"
     inkscape:snap-bbox="true"
     inkscape:bbox-paths="true"
     inkscape:bbox-nodes="true"
     inkscape:snap-bbox-edge-midpoints="true"
     inkscape:snap-bbox-midpoints="true"
     inkscape:document-rotation="0"
     units="px" />
  <metadata
     id="metadata5">
    <rdf:RDF>
      <cc:Work
         rdf:about="">
        <dc:format>image/svg+xml</dc:format>
        <dc:type
           rdf:resource="http://purl.org/dc/dcmitype/StillImage" />
        <dc:title></dc:title>
      </cc:Work>
    </rdf:RDF>
  </metadata>
  <g
     inkscape:label="Calque 1"
     inkscape:groupmode="layer"
     id="layer1">
    <path
       style="fill:#ff00ff;fill-opacity:1;stroke:none;stroke-width:0.381873"
       d="M 51.756529,81.489599 V 187.32293 H 157.58986 V 81.489599 Z m 6.614583,6.614583 H 150.97528 V 180.70835 H 58.371112 Z"
       id="rect815"
       inkscape:connector-curvature="0"
       inkscape:export-xdpi="96"
       inkscape:export-ydpi="96" />
    <rect
       inkscape:export-ydpi="96"
       inkscape:export-xdpi="96"
       y="93.131355"
       x="-168.37654"
       height="105.83333"
       width="105.83333"
       id="rect814"
       style="fill:#ffffff;fill-opacity:1;stroke:none;stroke-width:0.381873" />
    <rect
       inkscape:export-ydpi="96"
       inkscape:export-xdpi="96"
       style="fill:#000000;fill-opacity:1;stroke:none;stroke-width:0.334139"
       id="rect816"
       width="92.604172"
       height="92.604172"
       x="-161.76198"
       y="99.745964" />
    <rect
       y="106.36055"
       x="-155.1474"
       height="79.375"
       width="79.375"
       id="rect817"
       style="fill:#ffffff;fill-opacity:1;stroke:none;stroke-width:0.286404"
       inkscape:export-xdpi="96"
       inkscape:export-ydpi="96" />
    <rect
       inkscape:export-ydpi="96"
       inkscape:export-xdpi="96"
       style="fill:#000000;fill-opacity:1;stroke:none;stroke-width:0.23867"
       id="rect819"
       width="66.145836"
       height="66.145836"
       x="-148.53282"
       y="112.97514" />
    <rect
       y="119.58973"
       x="-141.91824"
       height="52.916668"
       width="52.916668"
       id="rect821"
       style="fill:#ffffff;fill-opacity:1;stroke:none;stroke-width:0.190936"
       inkscape:export-xdpi="96"
       inkscape:export-ydpi="96" />
    <rect
       inkscape:export-ydpi="96"
       inkscape:export-xdpi="96"
       style="fill:#000000;fill-opacity:1;stroke:none;stroke-width:0.143202"
       id="rect823"
       width="39.6875"
       height="39.6875"
       x="-135.30367"
       y="126.20432" />
    <rect
       y="132.81891"
       x="-128.68909"
       height="26.458334"
       width="26.458334"
       id="rect825"
       style="fill:#ffffff;fill-opacity:1;stroke:none;stroke-width:0.0954682"
       inkscape:export-xdpi="96"
       inkscape:export-ydpi="96" />
    <rect
       inkscape:export-ydpi="96"
       inkscape:export-xdpi="96"
       style="fill:#000000;fill-opacity:1;stroke:none;stroke-width:0.0477341"
       id="rect827"
       width="13.229167"
       height="13.229167"
       x="-122.0745"
       y="139.43349" />
    <rect
       style="fill:#ff00ff;fill-opacity:1;stroke:none;stroke-width:0.381873"
       id="rect829"
       width="105.83333"
       height="105.83333"
       x="-299.47415"
       y="93.131355"
       inkscape:export-xdpi="96"
       inkscape:export-ydpi="96" />
    <rect
       y="99.745964"
       x="-292.85959"
       height="92.604172"
       width="92.604172"
       id="rect831"
       style="fill:#000000;fill-opacity:1;stroke:none;stroke-width:0.334139"
       inkscape:export-xdpi="96"
       inkscape:export-ydpi="96" />
    <g
       id="g898"
       transform="translate(-143.23977,-261.33949)"
       inkscape:export-xdpi="96"
       inkscape:export-ydpi="96">
      <rect
         inkscape:export-ydpi="96"
         inkscape:export-xdpi="96"
         style="fill:#ffffff;fill-opacity:1;stroke:none;stroke-width:0.334139"
         id="rect831-1"
         width="92.604172"
         height="92.604172"
         x="-294.77924"
         y="362.95114" />
      <path
         inkscape:connector-curvature="0"
         id="rect865"
         d="m -301.3938,356.33652 v 105.83333 l 6.61458,-6.61458 V 362.9511 Z"
         style="fill:url(#linearGradient867);fill-opacity:1;stroke:none;stroke-width:0.0954682" />
      <path
         style="fill:url(#linearGradient883);fill-opacity:1;stroke:none;stroke-width:0.0954682"
         d="m -195.56049,356.33655 -105.83332,1e-5 6.61458,6.61458 h 92.60418 z"
         id="path881"
         inkscape:connector-curvature="0" />
      <path
         inkscape:connector-curvature="0"
         id="path885"
         d="m -195.56047,462.16988 -1e-5,-105.83331 -6.61458,6.61458 1e-5,92.60418 z"
         style="fill:url(#linearGradient887);fill-opacity:1;stroke:none;stroke-width:0.0954682" />
      <path
         style="fill:url(#linearGradient891);fill-opacity:1;stroke:none;stroke-width:0.0954682"
         d="m -301.3938,462.1699 h 105.8333 l -6.61457,-6.61459 -92.60419,3e-5 z"
         id="path889"
         inkscape:connector-curvature="0" />
    </g>
    <g
       id="g856"
       inkscape:export-xdpi="96"
       inkscape:export-ydpi="96">
      <rect
         inkscape:export-ydpi="96"
         inkscape:export-xdpi="96"
         y="234.43657"
         x="-295.54727"
         height="105.83334"
         width="105.83334"
         id="rect829-1"
         style="fill:#000001;fill-opacity:1;stroke:none;stroke-width:0.381873" />
      <rect
         inkscape:export-ydpi="96"
         inkscape:export-xdpi="96"
         style="fill:#ffffff;fill-opacity:1;stroke:none;stroke-width:0.334139"
         id="rect831-9"
         width="92.604172"
         height="92.604172"
         x="-288.93271"
         y="241.05118" />
    </g>
    <rect
       inkscape:export-ydpi="96"
       inkscape:export-xdpi="96"
       style="fill:#ffffff;fill-opacity:1;stroke:none;stroke-width:0.334139"
       id="rect857"
       width="92.604172"
       height="92.604172"
       x="-469.00555"
       y="259.17538"
       inkscape:export-filename="D:\programmation\unity\TheNetrunnerAwaken1ng\Assets\Textures\Cubes\Others\GripDash_PrevisualizationCube_2.png" />
    <path
       inkscape:connector-curvature="0"
       id="path859"
       d="M -475.62013,252.56077 V 358.3941 l 6.61458,-6.61458 v -92.60417 z"
       style="fill:url(#linearGradient869);fill-opacity:1;stroke:none;stroke-width:0.0954682"
       inkscape:export-filename="D:\programmation\unity\TheNetrunnerAwaken1ng\Assets\Textures\Cubes\Others\GripDash_PrevisualizationCube_2.png"
       inkscape:export-xdpi="96"
       inkscape:export-ydpi="96" />
    <path
       style="fill:url(#linearGradient871);fill-opacity:1;stroke:none;stroke-width:0.0954682"
       d="m -369.78682,252.5608 -105.83332,1e-5 6.61458,6.61457 h 92.60418 z"
       id="path861"
       inkscape:connector-curvature="0"
       inkscape:export-filename="D:\programmation\unity\TheNetrunnerAwaken1ng\Assets\Textures\Cubes\Others\GripDash_PrevisualizationCube_2.png"
       inkscape:export-xdpi="96"
       inkscape:export-ydpi="96" />
    <path
       inkscape:connector-curvature="0"
       id="path863"
       d="m -369.7868,358.39413 -10e-6,-105.83331 -6.61458,6.61458 10e-6,92.60418 z"
       style="fill:url(#linearGradient873);fill-opacity:1;stroke:none;stroke-width:0.0954682"
       inkscape:export-filename="D:\programmation\unity\TheNetrunnerAwaken1ng\Assets\Textures\Cubes\Others\GripDash_PrevisualizationCube_2.png"
       inkscape:export-xdpi="96"
       inkscape:export-ydpi="96" />
    <path
       style="fill:url(#linearGradient875);fill-opacity:1;stroke:none;stroke-width:0.0954682"
       d="m -475.62013,358.39415 h 105.8333 l -6.61457,-6.61459 -92.60419,3e-5 z"
       id="path865"
       inkscape:connector-curvature="0"
       inkscape:export-filename="D:\programmation\unity\TheNetrunnerAwaken1ng\Assets\Textures\Cubes\Others\GripDash_PrevisualizationCube_2.png"
       inkscape:export-xdpi="96"
       inkscape:export-ydpi="96" />
    <g
       id="g966"
       transform="translate(-139.1472,-15.200954)"
       inkscape:export-filename="D:\programmation\unity\TheNetrunnerAwaken1ng\Assets\Textures\Cubes\Others\GripDash_PrevisualizationCube.png"
       inkscape:export-xdpi="96"
       inkscape:export-ydpi="96">
      <path
         id="rect882"
         style="fill:url(#linearGradient927);fill-opacity:1;stroke:none;stroke-width:0.381873"
         d="m -339.36895,400.62774 20.46388,20.46438 h 5.1e-4 64.90456 5.2e-4 l 20.46387,-20.46438 z" />
      <path
         id="path929"
         style="fill:url(#linearGradient931);fill-opacity:1;stroke:none;stroke-width:0.381873"
         d="m -233.5351,400.62825 -20.46438,20.46387 v 5.1e-4 64.90455 l 2e-5,5.1e-4 20.46436,20.46389 z" />
      <path
         id="path933"
         style="fill:url(#linearGradient935);fill-opacity:1;stroke:none;stroke-width:0.381873"
         d="m -233.53559,506.46206 -20.46387,-20.46437 -5e-4,-10e-6 h -64.90456 l -4.9e-4,3e-5 -20.46391,20.46436 z" />
      <path
         id="path937"
         style="fill:url(#linearGradient939);fill-opacity:1;stroke:none;stroke-width:0.381873"
         d="m -339.36941,506.46154 20.46436,-20.46388 1e-5,-4.9e-4 V 421.0926 l -3e-5,-4.8e-4 -20.46436,-20.46392 z" />
      <rect
         style="fill:#000000;fill-opacity:1;fill-rule:evenodd;stroke:none;stroke-width:1.44732;stroke-linecap:square;stroke-linejoin:round;stroke-miterlimit:4;stroke-dasharray:none;stroke-opacity:0.993548"
         id="rect959"
         width="64.905609"
         height="64.905548"
         x="-318.90506"
         y="421.09213" />
    </g>
    <rect
       style="fill:#000000;fill-opacity:1;fill-rule:evenodd;stroke:#ffffff;stroke-width:15.875;stroke-linecap:square"
       id="rect908"
       width="1073.4213"
       height="1637.0259"
       x="-1746.9404"
       y="-813.83569" />
    <rect
       inkscape:export-ydpi="96"
       inkscape:export-xdpi="96"
       y="-321.85663"
       x="-1313.4265"
       height="105.83333"
       width="105.83333"
       id="rect814-6"
       style="fill:#ffffff;fill-opacity:1;stroke:none;stroke-width:0.381873" />
    <path
       id="rect958"
       style="fill:#000000;fill-opacity:1;fill-rule:evenodd;stroke:none;stroke-width:12.8969;stroke-linecap:square"
       d="m -1207.5932,-321.85663 -9.4285,18.78295 -2.5354,-2.53563 -35.2723,35.27235 h -4.2835 v -4.28347 l 35.2723,-35.27219 -2.5356,-2.5355 z"
       sodipodi:nodetypes="ccccccccc" />
    <path
       id="path961"
       style="fill:#000000;fill-opacity:1;fill-rule:evenodd;stroke:none;stroke-width:12.8969;stroke-linecap:square"
       d="m -1207.5931,-216.0233 -18.7829,-9.42842 2.5356,-2.53547 -35.2723,-35.27225 -1e-4,-4.28356 4.2835,2e-5 35.2722,35.27231 2.5355,-2.53562 z"
       sodipodi:nodetypes="ccccccccc" />
    <path
       id="path963"
       style="fill:#000000;fill-opacity:1;fill-rule:evenodd;stroke:none;stroke-width:12.8969;stroke-linecap:square"
       d="m -1313.4265,-216.0233 9.4286,-18.78273 2.5354,2.5355 35.2723,-35.27227 4.2836,-6e-5 -2e-4,4.2834 -35.2722,35.2723 2.5356,2.53546 z"
       sodipodi:nodetypes="ccccccccc" />
    <path
       id="path965"
       style="fill:#000000;fill-opacity:1;fill-rule:evenodd;stroke:none;stroke-width:12.8969;stroke-linecap:square"
       d="m -1313.4265,-321.85663 18.7827,9.42861 -2.5355,2.53543 35.2722,35.27224 10e-5,4.28365 -4.2835,-2.5e-4 -35.2722,-35.2722 -2.5355,2.53562 z"
       sodipodi:nodetypes="ccccccccc" />
    <rect
       inkscape:export-ydpi="96"
       inkscape:export-xdpi="96"
       y="-321.85663"
       x="-1138.8029"
       height="105.83333"
       width="105.83333"
       id="rect967"
       style="fill:#ffffff;fill-opacity:1;stroke:none;stroke-width:0.381873" />
    <path
       id="path969"
       style="fill:#000000;fill-opacity:1;fill-rule:evenodd;stroke:none;stroke-width:13.2466;stroke-linecap:square"
       d="m -1032.9695,-321.85663 -9.6842,19.29226 -2.6041,-2.60438 -36.2288,36.22879 h -4.3996 v -4.39962 l 36.2287,-36.22863 -2.6043,-2.60425 z"
       sodipodi:nodetypes="ccccccccc" />
    <path
       id="path977"
       style="fill:#000000;fill-opacity:1;fill-rule:evenodd;stroke:none;stroke-width:13.2466;stroke-linecap:square"
       d="m -1032.9695,-216.0232 -19.2923,-9.68419 2.6043,-2.60423 -36.2287,-36.22873 v -4.39961 h 4.3996 l 36.2287,36.22874 2.6042,-2.60429 z"
       sodipodi:nodetypes="ccccccccc" />
    <path
       id="path979"
       style="fill:#000000;fill-opacity:1;fill-rule:evenodd;stroke:none;stroke-width:13.2466;stroke-linecap:square"
       d="m -1138.8029,-216.0233 9.6842,-19.2923 2.6042,2.60432 36.2287,-36.22863 4.3998,3e-5 -10e-5,4.39951 -36.2288,36.22872 2.6043,2.60413 z"
       sodipodi:nodetypes="ccccccccc" />
    <path
       id="path981"
       style="fill:#000000;fill-opacity:1;fill-rule:evenodd;stroke:none;stroke-width:13.2466;stroke-linecap:square"
       d="m -1138.8029,-321.85663 19.2923,9.68429 -2.6043,2.6042 36.2286,36.22866 -1e-4,4.39984 -4.3995,-1.1e-4 -36.2287,-36.2288 -2.6042,2.60419 z"
       sodipodi:nodetypes="ccccccccc" />
    <rect
       inkscape:export-ydpi="96"
       inkscape:export-xdpi="96"
       y="-321.85663"
       x="-1604.4659"
       height="105.83333"
       width="105.83333"
       id="rect983"
       style="fill:#ffffff;fill-opacity:1;stroke:none;stroke-width:0.381873" />
    <path
       id="path985"
       style="fill:#000000;fill-opacity:1;fill-rule:evenodd;stroke:none;stroke-width:10.6201;stroke-linecap:square"
       d="m -1498.6345,-321.85663 -7.764,15.4671 -2.0878,-2.088 -29.0455,29.04553 h -3.5272 v -3.52729 l 29.0455,-29.04539 -2.0881,-2.0879 z"
       sodipodi:nodetypes="ccccccccc" />
    <path
       id="path993"
       style="fill:#000000;fill-opacity:1;fill-rule:evenodd;stroke:none;stroke-width:10.6201;stroke-linecap:square"
       d="m -1498.6345,-216.0233 -15.4671,-7.76406 2.088,-2.08781 -29.0456,-29.04545 v -3.52729 l 3.5274,1.4e-4 29.0453,29.04542 2.0879,-2.08807 z"
       sodipodi:nodetypes="ccccccccc" />
    <path
       id="path995"
       style="fill:#000000;fill-opacity:1;fill-rule:evenodd;stroke:none;stroke-width:10.6201;stroke-linecap:square"
       d="m -1604.4678,-216.0233 7.764,-15.46714 2.0879,2.08808 29.0455,-29.04561 3.5273,-4e-5 -2e-4,3.52744 -29.0454,29.04524 2.088,2.08789 z"
       sodipodi:nodetypes="ccccccccc" />
    <path
       id="path997"
       style="fill:#000000;fill-opacity:1;fill-rule:evenodd;stroke:none;stroke-width:10.6201;stroke-linecap:square"
       d="m -1604.4678,-321.85663 15.4671,7.76403 -2.088,2.08792 29.0456,29.04544 v 3.5274 l -3.5274,-2.5e-4 -29.0453,-29.04546 -2.0878,2.08806 z"
       sodipodi:nodetypes="ccccccccc" />
    <rect
       inkscape:export-ydpi="96"
       inkscape:export-xdpi="96"
       y="-321.85663"
       x="-1456.3004"
       height="105.83333"
       width="105.83333"
       id="rect999"
       style="fill:#ffffff;fill-opacity:1;stroke:none;stroke-width:0.381873" />
    <path
       id="path1001"
       style="fill:#000000;fill-opacity:1;fill-rule:evenodd;stroke:none;stroke-width:12.664;stroke-linecap:square"
       d="m -1350.4691,-321.85663 -9.2583,18.44383 -2.4896,-2.48985 -34.6355,34.63551 h -4.2061 v -4.20613 l 34.6354,-34.63536 -2.4898,-2.48972 z"
       sodipodi:nodetypes="ccccccccc" />
    <path
       id="path1009"
       style="fill:#000000;fill-opacity:1;fill-rule:evenodd;stroke:none;stroke-width:12.664;stroke-linecap:square"
       d="m -1350.4671,-216.0233 -18.4439,-9.25834 2.4899,-2.48948 -34.6355,-34.6356 -1e-4,-4.20615 4.2062,1.2e-4 34.6355,34.63545 2.4896,-2.48985 z"
       sodipodi:nodetypes="ccccccccc" />
    <path
       id="path1011"
       style="fill:#000000;fill-opacity:1;fill-rule:evenodd;stroke:none;stroke-width:12.664;stroke-linecap:square"
       d="m -1456.3004,-216.0233 9.2584,-18.44387 2.4894,2.48987 34.6357,-34.63546 4.206,-1.4e-4 v 4.20624 l -34.6355,34.63546 2.4899,2.48962 z"
       sodipodi:nodetypes="ccccccccc" />
    <path
       id="path1013"
       style="fill:#000000;fill-opacity:1;fill-rule:evenodd;stroke:none;stroke-width:12.664;stroke-linecap:square"
       d="m -1456.3004,-321.85663 18.4439,9.25844 -2.4898,2.48936 34.6355,34.63578 v 4.2059 l -4.2062,-2e-5 -34.6355,-34.63554 -2.4896,2.48992 z"
       sodipodi:nodetypes="ccccccccc" />
    <rect
       inkscape:export-ydpi="96"
       inkscape:export-xdpi="96"
       y="-291.8685"
       x="-1947.168"
       height="105.83333"
       width="105.83333"
       id="rect999-4"
       style="fill:#ffffff;fill-opacity:1;stroke:none;stroke-width:0.381873" />
    <path
       id="path1001-6"
       style="fill:#000000;fill-opacity:1;fill-rule:evenodd;stroke:none;stroke-width:12.664;stroke-linecap:square"
       d="m -1841.3367,-291.86849 -9.2583,18.44383 -2.4896,-2.48985 -34.6355,34.63551 h -4.2061 v -4.20613 l 34.6354,-34.63536 -2.4898,-2.48972 z"
       sodipodi:nodetypes="ccccccccc"
       inkscape:export-xdpi="96"
       inkscape:export-ydpi="96" />
    <path
       id="path1009-9"
       style="fill:#000000;fill-opacity:1;fill-rule:evenodd;stroke:none;stroke-width:12.664;stroke-linecap:square"
       d="m -1841.3347,-186.03516 -18.4439,-9.25834 2.4899,-2.48948 -34.6355,-34.6356 -10e-5,-4.20615 4.2062,1.2e-4 34.6355,34.63545 2.4896,-2.48985 z"
       sodipodi:nodetypes="ccccccccc"
       inkscape:export-xdpi="96"
       inkscape:export-ydpi="96" />
    <path
       id="path1011-1"
       style="fill:#000000;fill-opacity:1;fill-rule:evenodd;stroke:none;stroke-width:12.664;stroke-linecap:square"
       d="m -1947.168,-186.03516 9.2584,-18.44387 2.4894,2.48987 34.6357,-34.63546 4.206,-1.4e-4 v 4.20624 l -34.6355,34.63546 2.4899,2.48962 z"
       sodipodi:nodetypes="ccccccccc"
       inkscape:export-xdpi="96"
       inkscape:export-ydpi="96" />
    <path
       id="path1013-0"
       style="fill:#000000;fill-opacity:1;fill-rule:evenodd;stroke:none;stroke-width:12.664;stroke-linecap:square"
       d="m -1947.168,-291.86849 18.4439,9.25844 -2.4898,2.48936 34.6355,34.63578 v 4.2059 l -4.2062,-2e-5 -34.6355,-34.63554 -2.4896,2.48992 z"
       sodipodi:nodetypes="ccccccccc"
       inkscape:export-xdpi="96"
       inkscape:export-ydpi="96" />
    <rect
       inkscape:export-ydpi="96"
       inkscape:export-xdpi="96"
       y="-157.81499"
       x="-1456.3004"
       height="105.83333"
       width="105.83333"
       id="rect1091"
       style="fill:#000000;fill-opacity:1;stroke:none;stroke-width:0.381873" />
    <path
       id="path1093"
       style="fill:#ffffff;fill-opacity:1;fill-rule:evenodd;stroke:none;stroke-width:12.664;stroke-linecap:square"
       d="m -1350.4691,-157.81486 -9.2583,18.44383 -2.4896,-2.48985 -34.6355,34.63551 h -4.2061 v -4.20613 l 34.6354,-34.63536 -2.4898,-2.48972 z"
       sodipodi:nodetypes="ccccccccc" />
    <path
       id="path1095"
       style="fill:#ffffff;fill-opacity:1;fill-rule:evenodd;stroke:none;stroke-width:12.664;stroke-linecap:square"
       d="m -1350.4671,-51.98156 -18.4439,-9.258334 2.4899,-2.489477 -34.6355,-34.635582 -1e-4,-4.206147 4.2062,1.2e-4 34.6355,34.635429 2.4896,-2.489847 z"
       sodipodi:nodetypes="ccccccccc" />
    <path
       id="path1097"
       style="fill:#ffffff;fill-opacity:1;fill-rule:evenodd;stroke:none;stroke-width:12.664;stroke-linecap:square"
       d="m -1456.3004,-51.98156 9.2584,-18.443858 2.4894,2.489867 34.6357,-34.635439 4.206,-1.4e-4 v 4.206237 l -34.6355,34.635442 2.4899,2.489617 z"
       sodipodi:nodetypes="ccccccccc" />
    <path
       id="path1099"
       style="fill:#ffffff;fill-opacity:1;fill-rule:evenodd;stroke:none;stroke-width:12.664;stroke-linecap:square"
       d="m -1456.3004,-157.81486 18.4439,9.25844 -2.4898,2.48936 34.6355,34.63578 v 4.2059 l -4.2062,-2e-5 -34.6355,-34.63554 -2.4896,2.48992 z"
       sodipodi:nodetypes="ccccccccc" />
    <rect
       inkscape:export-ydpi="96"
       inkscape:export-xdpi="96"
       y="-144.99942"
       x="-1925.5574"
       height="105.83333"
       width="105.83333"
       id="rect1091-5"
       style="fill:#000000;fill-opacity:1;stroke:none;stroke-width:0.381873" />
    <path
       id="path1093-5"
       style="fill:#ffffff;fill-opacity:1;fill-rule:evenodd;stroke:none;stroke-width:12.664;stroke-linecap:square"
       d="m -1819.726,-144.99929 -9.2583,18.44383 -2.4896,-2.48985 -34.6355,34.635509 h -4.2061 v -4.20613 l 34.6354,-34.635359 -2.4898,-2.48972 z"
       sodipodi:nodetypes="ccccccccc"
       inkscape:export-xdpi="96"
       inkscape:export-ydpi="96" />
    <path
       id="path1095-3"
       style="fill:#ffffff;fill-opacity:1;fill-rule:evenodd;stroke:none;stroke-width:12.664;stroke-linecap:square"
       d="m -1819.724,-39.165991 -18.4439,-9.258334 2.4899,-2.489477 -34.6355,-34.635582 -10e-5,-4.206147 4.2062,1.2e-4 34.6355,34.635429 2.4896,-2.489847 z"
       sodipodi:nodetypes="ccccccccc"
       inkscape:export-xdpi="96"
       inkscape:export-ydpi="96" />
    <path
       id="path1097-4"
       style="fill:#ffffff;fill-opacity:1;fill-rule:evenodd;stroke:none;stroke-width:12.664;stroke-linecap:square"
       d="m -1925.5573,-39.165991 9.2584,-18.443858 2.4894,2.489867 34.6357,-34.635439 4.206,-1.4e-4 v 4.206237 l -34.6355,34.635442 2.4899,2.489617 z"
       sodipodi:nodetypes="ccccccccc"
       inkscape:export-xdpi="96"
       inkscape:export-ydpi="96" />
    <path
       id="path1099-2"
       style="fill:#ffffff;fill-opacity:1;fill-rule:evenodd;stroke:none;stroke-width:12.664;stroke-linecap:square"
       d="m -1925.5573,-144.99929 18.4439,9.25844 -2.4898,2.48936 34.6355,34.635779 v 4.2059 l -4.2062,-2e-5 -34.6355,-34.635539 -2.4896,2.48992 z"
       sodipodi:nodetypes="ccccccccc"
       inkscape:export-xdpi="96"
       inkscape:export-ydpi="96" />
    <rect
       inkscape:export-ydpi="96"
       inkscape:export-xdpi="96"
       y="-14.939971"
       x="-1456.3004"
       height="105.83333"
       width="105.83333"
       id="rect1152"
       style="fill:#000000;fill-opacity:1;stroke:none;stroke-width:0.381873" />
    <path
       id="path1154"
       style="fill:#ffffff;fill-opacity:1;fill-rule:evenodd;stroke:none;stroke-width:12.664;stroke-linecap:square"
       d="m -1350.4691,-14.939821 -9.2583,18.4438201 -2.4896,-2.48985 -34.6355,34.6354909 h -4.2061 v -4.206126 l 34.6354,-34.6353416 -2.4898,-2.4897167 z"
       sodipodi:nodetypes="ccccccccc"
       inkscape:export-xdpi="96"
       inkscape:export-ydpi="96" />
    <path
       id="path1156"
       style="fill:#ffffff;fill-opacity:1;fill-rule:evenodd;stroke:none;stroke-width:12.664;stroke-linecap:square"
       d="m -1350.4671,90.893447 -18.4439,-9.258334 2.4899,-2.489476 -34.6355,-34.635583 -1e-4,-4.206147 4.2062,1.2e-4 34.6355,34.635429 2.4896,-2.489847 z"
       sodipodi:nodetypes="ccccccccc"
       inkscape:export-xdpi="96"
       inkscape:export-ydpi="96" />
    <path
       id="path1158"
       style="fill:#ffffff;fill-opacity:1;fill-rule:evenodd;stroke:none;stroke-width:12.664;stroke-linecap:square"
       d="m -1456.3004,90.893447 9.2584,-18.443858 2.4894,2.489867 34.6357,-34.635439 4.206,-1.4e-4 v 4.206237 l -34.6355,34.635443 2.4899,2.489616 z"
       sodipodi:nodetypes="ccccccccc"
       inkscape:export-xdpi="96"
       inkscape:export-ydpi="96" />
    <path
       id="path1160"
       style="fill:#ffffff;fill-opacity:1;fill-rule:evenodd;stroke:none;stroke-width:12.664;stroke-linecap:square"
       d="m -1456.3004,-14.939821 18.4439,9.2584367 -2.4898,2.4893567 34.6355,34.6357616 v 4.205896 l -4.2062,-2e-5 -34.6355,-34.6355209 -2.4896,2.48992 z"
       sodipodi:nodetypes="ccccccccc"
       inkscape:export-xdpi="96"
       inkscape:export-ydpi="96" />
    <path
       id="path1162"
       style="fill:#ffffff;fill-opacity:1;fill-rule:evenodd;stroke:none;stroke-width:9.78459;stroke-linecap:square"
       d="m -1350.4671,37.976748 -11.6934,6.495112 10e-5,-3.520956 -29.2402,-5.3e-5 -1.7755,-2.97417 1.7756,-2.974127 29.2401,3.7e-5 -10e-5,-3.521064 z"
       sodipodi:nodetypes="ccccccccc"
       inkscape:export-xdpi="96"
       inkscape:export-ydpi="96" />
    <path
       id="path1164"
       style="fill:#ffffff;fill-opacity:1;fill-rule:evenodd;stroke:none;stroke-width:9.78459;stroke-linecap:square"
       d="m -1403.3838,90.893357 -6.495,-11.693357 3.5209,1.21e-4 2e-4,-29.240073 2.9739,-1.775958 2.9741,1.775622 v 29.240141 l 3.521,-1.76e-4 z"
       sodipodi:nodetypes="ccccccccc"
       inkscape:export-xdpi="96"
       inkscape:export-ydpi="96" />
    <path
       id="path1166"
       style="fill:#ffffff;fill-opacity:1;fill-rule:evenodd;stroke:none;stroke-width:9.78459;stroke-linecap:square"
       d="m -1403.3838,-14.939971 -6.495,11.693357 3.5209,-1.21e-4 2e-4,29.240073 2.9739,1.775958 2.9741,-1.775622 V -3.246467 l 3.521,1.76e-4 z"
       sodipodi:nodetypes="ccccccccc"
       inkscape:export-xdpi="96"
       inkscape:export-ydpi="96" />
    <path
       id="path1168"
       style="fill:#ffffff;fill-opacity:1;fill-rule:evenodd;stroke:none;stroke-width:9.78459;stroke-linecap:square"
       d="m -1456.3004,37.976748 11.6934,6.495112 -10e-5,-3.520956 29.2402,-5.3e-5 1.7755,-2.97417 -1.7756,-2.974127 -29.2401,3.7e-5 10e-5,-3.521064 z"
       sodipodi:nodetypes="ccccccccc"
       inkscape:export-xdpi="96"
       inkscape:export-ydpi="96" />
    <rect
       inkscape:export-ydpi="96"
       inkscape:export-xdpi="96"
       y="-14.939971"
       x="-1269.5226"
       height="105.83333"
       width="105.83333"
       id="rect1189"
       style="fill:#000000;fill-opacity:1;stroke:none;stroke-width:0.381873" />
    <rect
       inkscape:export-ydpi="96"
       inkscape:export-xdpi="96"
       y="783.80731"
       x="837.51453"
       height="99.218765"
       width="99.218765"
       id="rect1207"
       style="fill:none;fill-opacity:1;stroke:#ffffff;stroke-width:6.61457;stroke-miterlimit:4;stroke-dasharray:none;stroke-opacity:1"
       transform="rotate(135)" />
    <rect
       inkscape:export-ydpi="96"
       inkscape:export-xdpi="96"
       y="803.65112"
       x="857.35828"
       height="59.531265"
       width="59.531265"
       id="rect1209"
       style="fill:none;fill-opacity:1;stroke:#ffffff;stroke-width:6.61457;stroke-miterlimit:4;stroke-dasharray:none;stroke-opacity:1"
       transform="rotate(135)" />
    <rect
       inkscape:export-ydpi="96"
       inkscape:export-xdpi="96"
       y="823.49481"
       x="877.20203"
       height="19.843763"
       width="19.843763"
       id="rect1211"
       style="fill:none;fill-opacity:1;stroke:#ffffff;stroke-width:6.61457;stroke-miterlimit:4;stroke-dasharray:none;stroke-opacity:1"
       transform="rotate(135)" />
    <rect
       inkscape:export-ydpi="96"
       inkscape:export-xdpi="96"
       y="763.96356"
       x="817.67084"
       height="138.90627"
       width="138.90627"
       id="rect1213"
       style="fill:none;fill-opacity:1;stroke:#ffffff;stroke-width:6.61457;stroke-miterlimit:4;stroke-dasharray:none;stroke-opacity:1"
       transform="rotate(135)" />
    <rect
       inkscape:export-ydpi="96"
       inkscape:export-xdpi="96"
       y="149.1017"
       x="-1456.3004"
       height="105.83333"
       width="105.83333"
       id="rect1215"
       style="fill:#ffffff;fill-opacity:1;stroke:none;stroke-width:0.381873" />
    <path
       id="path1217"
       style="fill:#000000;fill-opacity:1;fill-rule:evenodd;stroke:none;stroke-width:12.664;stroke-linecap:square"
       d="m -1350.4691,149.10188 -9.2583,18.44383 -2.4896,-2.48985 -34.6355,34.63551 h -4.2061 v -4.20613 l 34.6354,-34.63536 -2.4898,-2.48972 z"
       sodipodi:nodetypes="ccccccccc"
       inkscape:export-xdpi="96"
       inkscape:export-ydpi="96" />
    <path
       id="path1219"
       style="fill:#000000;fill-opacity:1;fill-rule:evenodd;stroke:none;stroke-width:12.664;stroke-linecap:square"
       d="m -1350.4671,254.93521 -18.4439,-9.25834 2.4899,-2.48948 -34.6355,-34.6356 -1e-4,-4.20615 4.2062,1.2e-4 34.6355,34.63545 2.4896,-2.48985 z"
       sodipodi:nodetypes="ccccccccc"
       inkscape:export-xdpi="96"
       inkscape:export-ydpi="96" />
    <path
       id="path1221"
       style="fill:#000000;fill-opacity:1;fill-rule:evenodd;stroke:none;stroke-width:12.664;stroke-linecap:square"
       d="m -1456.3004,254.93521 9.2584,-18.44387 2.4894,2.48987 34.6357,-34.63546 4.206,-1.4e-4 v 4.20624 l -34.6355,34.63546 2.4899,2.48962 z"
       sodipodi:nodetypes="ccccccccc"
       inkscape:export-xdpi="96"
       inkscape:export-ydpi="96" />
    <path
       id="path1223"
       style="fill:#000000;fill-opacity:1;fill-rule:evenodd;stroke:none;stroke-width:12.664;stroke-linecap:square"
       d="m -1456.3004,149.10188 18.4439,9.25844 -2.4898,2.48936 34.6355,34.63578 v 4.2059 l -4.2062,-2e-5 -34.6355,-34.63554 -2.4896,2.48992 z"
       sodipodi:nodetypes="ccccccccc"
       inkscape:export-xdpi="96"
       inkscape:export-ydpi="96" />
    <path
       id="path1225"
       style="fill:#000000;fill-opacity:1;fill-rule:evenodd;stroke:none;stroke-width:9.78459;stroke-linecap:square"
       d="m -1350.4671,202.01848 -11.6934,6.49512 10e-5,-3.52096 -29.2402,-6e-5 -1.7755,-2.97417 1.7756,-2.97413 29.2401,4e-5 -10e-5,-3.52106 z"
       sodipodi:nodetypes="ccccccccc"
       inkscape:export-xdpi="96"
       inkscape:export-ydpi="96" />
    <path
       id="path1227"
       style="fill:#000000;fill-opacity:1;fill-rule:evenodd;stroke:none;stroke-width:9.78459;stroke-linecap:square"
       d="m -1403.3838,254.93512 -6.495,-11.69336 3.5209,1.2e-4 2e-4,-29.24009 2.9739,-1.77596 2.9741,1.77562 v 29.24016 l 3.521,-1.8e-4 z"
       sodipodi:nodetypes="ccccccccc"
       inkscape:export-xdpi="96"
       inkscape:export-ydpi="96" />
    <path
       id="path1229"
       style="fill:#000000;fill-opacity:1;fill-rule:evenodd;stroke:none;stroke-width:9.78459;stroke-linecap:square"
       d="m -1403.3838,149.10173 -6.495,11.69336 3.5209,-1.2e-4 2e-4,29.2401 2.9739,1.77595 2.9741,-1.77562 v -29.24016 l 3.521,1.8e-4 z"
       sodipodi:nodetypes="ccccccccc"
       inkscape:export-xdpi="96"
       inkscape:export-ydpi="96" />
    <path
       id="path1231"
       style="fill:#000000;fill-opacity:1;fill-rule:evenodd;stroke:none;stroke-width:9.78459;stroke-linecap:square"
       d="m -1456.3004,202.01848 11.6934,6.49512 -10e-5,-3.52096 29.2402,-6e-5 1.7755,-2.97417 -1.7756,-2.97413 -29.2401,4e-5 10e-5,-3.52106 z"
       sodipodi:nodetypes="ccccccccc"
       inkscape:export-xdpi="96"
       inkscape:export-ydpi="96" />
    <rect
       inkscape:export-ydpi="96"
       inkscape:export-xdpi="96"
       y="286.68509"
       x="-1456.3004"
       height="105.83333"
       width="105.83333"
       id="rect1264"
       style="fill:#030303;fill-opacity:1;stroke:none;stroke-width:0.381873" />
    <g
       id="g1260"
       transform="matrix(0.87500004,0,0,0.87499817,-175.42291,37.820552)"
       style="stroke-width:1.14286">
      <rect
         inkscape:export-ydpi="96"
         inkscape:export-xdpi="96"
         y="291.97675"
         x="-1456.3004"
         height="105.83333"
         width="105.83333"
         id="rect1262"
         style="fill:#000000;fill-opacity:1;stroke:none;stroke-width:0.436426" />
      <rect
         inkscape:export-ydpi="96"
         inkscape:export-xdpi="96"
         y="291.97675"
         x="-1456.3004"
         height="105.83333"
         width="105.83333"
         id="rect1233"
         style="fill:#ffffff;fill-opacity:1;stroke:none;stroke-width:0.436426" />
      <path
         id="path1235"
         style="fill:#000000;fill-opacity:1;fill-rule:evenodd;stroke:none;stroke-width:14.4731;stroke-linecap:square"
         d="m -1350.4691,291.97697 -9.2583,18.44383 -2.4896,-2.48985 -34.6355,34.63551 h -4.2061 v -4.20613 l 34.6354,-34.63536 -2.4898,-2.48972 z"
         sodipodi:nodetypes="ccccccccc"
         inkscape:export-xdpi="96"
         inkscape:export-ydpi="96" />
      <path
         id="path1237"
         style="fill:#000000;fill-opacity:1;fill-rule:evenodd;stroke:none;stroke-width:14.4731;stroke-linecap:square"
         d="m -1350.4671,397.8103 -18.4439,-9.25834 2.4899,-2.48948 -34.6355,-34.6356 -1e-4,-4.20615 4.2062,1.2e-4 34.6355,34.63545 2.4896,-2.48985 z"
         sodipodi:nodetypes="ccccccccc"
         inkscape:export-xdpi="96"
         inkscape:export-ydpi="96" />
      <path
         id="path1239"
         style="fill:#000000;fill-opacity:1;fill-rule:evenodd;stroke:none;stroke-width:14.4731;stroke-linecap:square"
         d="m -1456.3004,397.8103 9.2584,-18.44387 2.4894,2.48987 34.6357,-34.63546 4.206,-1.4e-4 v 4.20624 l -34.6355,34.63546 2.4899,2.48962 z"
         sodipodi:nodetypes="ccccccccc"
         inkscape:export-xdpi="96"
         inkscape:export-ydpi="96" />
      <path
         id="path1241"
         style="fill:#000000;fill-opacity:1;fill-rule:evenodd;stroke:none;stroke-width:14.4731;stroke-linecap:square"
         d="m -1456.3004,291.97697 18.4439,9.25844 -2.4898,2.48936 34.6355,34.63578 v 4.2059 l -4.2062,-2e-5 -34.6355,-34.63554 -2.4896,2.48992 z"
         sodipodi:nodetypes="ccccccccc"
         inkscape:export-xdpi="96"
         inkscape:export-ydpi="96" />
      <path
         id="path1243"
         style="fill:#000000;fill-opacity:1;fill-rule:evenodd;stroke:none;stroke-width:11.1824;stroke-linecap:square"
         d="m -1350.4671,344.89357 -11.6934,6.49512 10e-5,-3.52096 -29.2402,-6e-5 -1.7755,-2.97417 1.7756,-2.97413 29.2401,4e-5 -10e-5,-3.52106 z"
         sodipodi:nodetypes="ccccccccc"
         inkscape:export-xdpi="96"
         inkscape:export-ydpi="96" />
      <path
         id="path1245"
         style="fill:#000000;fill-opacity:1;fill-rule:evenodd;stroke:none;stroke-width:11.1824;stroke-linecap:square"
         d="m -1403.3838,397.81021 -6.495,-11.69336 3.5209,1.2e-4 2e-4,-29.24009 2.9739,-1.77596 2.9741,1.77562 v 29.24016 l 3.521,-1.8e-4 z"
         sodipodi:nodetypes="ccccccccc"
         inkscape:export-xdpi="96"
         inkscape:export-ydpi="96" />
      <path
         id="path1247"
         style="fill:#000000;fill-opacity:1;fill-rule:evenodd;stroke:none;stroke-width:11.1824;stroke-linecap:square"
         d="m -1403.3838,291.97682 -6.495,11.69336 3.5209,-1.2e-4 2e-4,29.2401 2.9739,1.77595 2.9741,-1.77562 v -29.24016 l 3.521,1.8e-4 z"
         sodipodi:nodetypes="ccccccccc"
         inkscape:export-xdpi="96"
         inkscape:export-ydpi="96" />
      <path
         id="path1249"
         style="fill:#000000;fill-opacity:1;fill-rule:evenodd;stroke:none;stroke-width:11.1824;stroke-linecap:square"
         d="m -1456.3004,344.89357 11.6934,6.49512 -10e-5,-3.52096 29.2402,-6e-5 1.7755,-2.97417 -1.7756,-2.97413 -29.2401,4e-5 10e-5,-3.52106 z"
         sodipodi:nodetypes="ccccccccc"
         inkscape:export-xdpi="96"
         inkscape:export-ydpi="96" />
    </g>
  </g>
</svg>
