<?xml version="1.0" encoding="UTF-8" standalone="no"?>
<svg
   xmlns:dc="http://purl.org/dc/elements/1.1/"
   xmlns:cc="http://creativecommons.org/ns#"
   xmlns:rdf="http://www.w3.org/1999/02/22-rdf-syntax-ns#"
   xmlns:svg="http://www.w3.org/2000/svg"
   xmlns="http://www.w3.org/2000/svg"
   xmlns:xlink="http://www.w3.org/1999/xlink"
   xmlns:sodipodi="http://sodipodi.sourceforge.net/DTD/sodipodi-0.dtd"
   xmlns:inkscape="http://www.inkscape.org/namespaces/inkscape"
   width="210mm"
   height="297mm"
   viewBox="0 0 210 297"
   version="1.1"
   id="svg8"
   inkscape:version="1.0.2-2 (e86c870879, 2021-01-15)"
   sodipodi:docname="lightning_sandbox.svg"
   inkscape:export-filename="D:\programmation\unity\TheNetrunnerAwaken1ng\Assets\Textures\Particles\ring.png"
   inkscape:export-xdpi="96"
   inkscape:export-ydpi="96">
  <defs
     id="defs2">
    <inkscape:path-effect
       effect="powerstroke"
       id="path-effect1367"
       is_visible="true"
       lpeversion="1"
       offset_points="1.9412465,-22.103888 | 2.5916585,-17.284298 | 4.9218948,-0.66309719"
       sort_points="true"
       interpolator_type="CentripetalCatmullRom"
       interpolator_beta="0.2"
       start_linecap_type="zerowidth"
       linejoin_type="round"
       miter_limit="4"
       scale_width="1"
       end_linecap_type="zerowidth" />
    <inkscape:path-effect
       effect="powerstroke"
       id="path-effect1363"
       is_visible="true"
       lpeversion="1"
       offset_points="1.9412465,-22.103888 | 2.5916585,-17.284298 | 4.9218948,-0.66309719"
       sort_points="true"
       interpolator_type="CentripetalCatmullRom"
       interpolator_beta="0.2"
       start_linecap_type="zerowidth"
       linejoin_type="round"
       miter_limit="4"
       scale_width="1"
       end_linecap_type="zerowidth" />
    <inkscape:path-effect
       effect="powerstroke"
       id="path-effect1359"
       is_visible="true"
       lpeversion="1"
       offset_points="1.9412465,-22.103888 | 2.530582,-20.774906 | 4.9218948,-0.66309719"
       sort_points="true"
       interpolator_type="CentripetalCatmullRom"
       interpolator_beta="0.2"
       start_linecap_type="zerowidth"
       linejoin_type="round"
       miter_limit="4"
       scale_width="1"
       end_linecap_type="zerowidth" />
    <inkscape:path-effect
       effect="lattice2"
       gridpoint0="561.66757,-133.78041"
       gridpoint1="768.8222,-133.78041"
       gridpoint2="561.66757,73.374222"
       gridpoint3="768.8222,73.374222"
       gridpoint4="613.45623,-133.78041"
       gridpoint5="717.03355,-133.78041"
       gridpoint6="613.45623,73.374222"
       gridpoint7="717.03355,73.374222"
       gridpoint8x9="665.24489,-133.78041"
       gridpoint10x11="665.24489,73.374222"
       gridpoint12="561.66757,-81.991753"
       gridpoint13="768.8222,-81.991753"
       gridpoint14="561.66757,21.585564"
       gridpoint15="768.8222,21.585564"
       gridpoint16="613.45623,-81.991753"
       gridpoint17="717.03355,-81.991753"
       gridpoint18="613.45623,21.585564"
       gridpoint19="717.03355,21.585564"
       gridpoint20x21="665.24489,-81.991753"
       gridpoint22x23="665.24489,21.585564"
       gridpoint24x26="561.66757,-30.203094"
       gridpoint25x27="768.8222,-30.203094"
       gridpoint28x30="613.45623,-30.203094"
       gridpoint29x31="717.03355,-30.203094"
       gridpoint32x33x34x35="665.24489,-30.203094"
       id="path-effect1351"
       is_visible="true"
       lpeversion="1"
       horizontal_mirror="false"
       vertical_mirror="false"
       perimetral="false"
       live_update="true" />
    <inkscape:path-effect
       effect="envelope"
       id="path-effect1349"
       is_visible="true"
       lpeversion="1"
       yy="true"
       xx="true"
       bendpath1="M 561.66757,-133.78041 H 768.8222"
       bendpath2="M 768.8222,-133.78041 V 73.374222"
       bendpath3="M 561.66757,73.374222 H 768.8222"
       bendpath4="M 561.66757,-133.78041 V 73.374222" />
    <inkscape:path-effect
       effect="lattice2"
       gridpoint0="561.66757,-133.78041"
       gridpoint1="768.8222,-133.78041"
       gridpoint2="561.66757,73.374222"
       gridpoint3="768.8222,73.374222"
       gridpoint4="613.45623,-133.78041"
       gridpoint5="717.03355,-133.78041"
       gridpoint6="613.45623,73.374222"
       gridpoint7="717.03355,73.374222"
       gridpoint8x9="665.24489,-133.78041"
       gridpoint10x11="665.24489,73.374222"
       gridpoint12="561.66757,-81.991753"
       gridpoint13="768.8222,-81.991753"
       gridpoint14="561.66757,21.585564"
       gridpoint15="768.8222,21.585564"
       gridpoint16="613.45623,-81.991753"
       gridpoint17="717.03355,-81.991753"
       gridpoint18="613.45623,21.585564"
       gridpoint19="717.03355,21.585564"
       gridpoint20x21="665.24489,-81.991753"
       gridpoint22x23="665.24489,21.585564"
       gridpoint24x26="561.66757,-30.203094"
       gridpoint25x27="768.8222,-30.203094"
       gridpoint28x30="613.45623,-30.203094"
       gridpoint29x31="717.03355,-30.203094"
       gridpoint32x33x34x35="665.24489,-30.203094"
       id="path-effect1347"
       is_visible="true"
       lpeversion="1"
       horizontal_mirror="false"
       vertical_mirror="false"
       perimetral="false"
       live_update="true" />
    <inkscape:path-effect
       effect="powerstroke"
       id="path-effect1335"
       is_visible="true"
       lpeversion="1"
       offset_points="1.9412465,-22.103888 | 2.5916585,-17.284298 | 4.9218948,-0.66309719"
       sort_points="true"
       interpolator_type="CentripetalCatmullRom"
       interpolator_beta="0.2"
       start_linecap_type="zerowidth"
       linejoin_type="round"
       miter_limit="4"
       scale_width="1"
       end_linecap_type="zerowidth" />
    <linearGradient
       inkscape:collect="always"
       id="linearGradient1313">
      <stop
         style="stop-color:#ffffff;stop-opacity:0.99659866"
         offset="0"
         id="stop1309" />
      <stop
         style="stop-color:#ffffff;stop-opacity:0"
         offset="1"
         id="stop1311" />
    </linearGradient>
    <linearGradient
       inkscape:collect="always"
       id="linearGradient1011-0">
      <stop
         style="stop-color:#ffffff;stop-opacity:1"
         offset="0"
         id="stop1007" />
      <stop
         style="stop-color:#ffffff;stop-opacity:0"
         offset="1"
         id="stop1009" />
    </linearGradient>
    <linearGradient
       inkscape:collect="always"
       id="linearGradient882">
      <stop
         style="stop-color:#ffffff;stop-opacity:1"
         offset="0"
         id="stop878" />
      <stop
         style="stop-color:#ffffff;stop-opacity:0;"
         offset="1"
         id="stop880" />
    </linearGradient>
    <linearGradient
       inkscape:collect="always"
       id="linearGradient841">
      <stop
         style="stop-color:#000000;stop-opacity:0"
         offset="0"
         id="stop857" />
      <stop
         style="stop-color:#ffffff;stop-opacity:1"
         offset="1"
         id="stop859" />
    </linearGradient>
    <radialGradient
       inkscape:collect="always"
       xlink:href="#linearGradient882"
       id="radialGradient871"
       gradientUnits="userSpaceOnUse"
       cx="250.16428"
       cy="326.60336"
       fx="250.16428"
       fy="326.60336"
       r="71.093697"
       gradientTransform="matrix(5.517676,0,0,5.517676,-434.82263,-567.68508)" />
    <radialGradient
       inkscape:collect="always"
       xlink:href="#linearGradient841"
       id="radialGradient875"
       gradientUnits="userSpaceOnUse"
       cx="250.16428"
       cy="326.60336"
       fx="250.16428"
       fy="326.60336"
       r="71.093697"
       gradientTransform="translate(3.365236e-5,-6.2135521e-5)" />
    <filter
       inkscape:collect="always"
       style="color-interpolation-filters:sRGB"
       id="filter887"
       x="-0.038880001"
       width="1.07776"
       y="-0.038879999"
       height="1.07776">
      <feGaussianBlur
         inkscape:collect="always"
         stdDeviation="1.7145"
         id="feGaussianBlur889" />
    </filter>
    <filter
       inkscape:collect="always"
       style="color-interpolation-filters:sRGB"
       id="filter887-8"
       x="-0.038880002"
       width="1.07776"
       y="-0.038879998"
       height="1.07776">
      <feGaussianBlur
         inkscape:collect="always"
         stdDeviation="1.7145"
         id="feGaussianBlur889-4" />
    </filter>
    <radialGradient
       inkscape:collect="always"
       xlink:href="#linearGradient1011-0"
       id="radialGradient1013"
       cx="563.21997"
       cy="379.47308"
       fx="563.21997"
       fy="379.47308"
       r="79.554459"
       gradientUnits="userSpaceOnUse" />
    <radialGradient
       inkscape:collect="always"
       xlink:href="#linearGradient1011-0"
       id="radialGradient1044"
       gradientUnits="userSpaceOnUse"
       cx="563.21997"
       cy="379.47308"
       fx="563.21997"
       fy="379.47308"
       r="79.554459" />
    <radialGradient
       inkscape:collect="always"
       xlink:href="#linearGradient1011-0"
       id="radialGradient1046"
       gradientUnits="userSpaceOnUse"
       cx="563.21997"
       cy="379.47308"
       fx="563.21997"
       fy="379.47308"
       r="79.554459" />
    <radialGradient
       inkscape:collect="always"
       xlink:href="#linearGradient1011-0"
       id="radialGradient1048"
       gradientUnits="userSpaceOnUse"
       cx="563.21997"
       cy="379.47308"
       fx="563.21997"
       fy="379.47308"
       r="79.554459" />
    <radialGradient
       inkscape:collect="always"
       xlink:href="#linearGradient1313"
       id="radialGradient1315"
       cx="436.15463"
       cy="-143.03665"
       fx="436.15463"
       fy="-143.03665"
       r="46.265018"
       gradientUnits="userSpaceOnUse"
       gradientTransform="matrix(1.3957003,0,0,1.3957003,-172.58651,56.599643)" />
  </defs>
  <sodipodi:namedview
     id="base"
     pagecolor="#ffffff"
     bordercolor="#666666"
     borderopacity="1.0"
     inkscape:pageopacity="0.0"
     inkscape:pageshadow="2"
     inkscape:zoom="0.14343465"
     inkscape:cx="-3422.5077"
     inkscape:cy="-583.53781"
     inkscape:document-units="mm"
     inkscape:current-layer="layer1"
     inkscape:document-rotation="0"
     showgrid="false"
     inkscape:window-width="1920"
     inkscape:window-height="1017"
     inkscape:window-x="-8"
     inkscape:window-y="-8"
     inkscape:window-maximized="1"
     inkscape:snap-bbox="true"
     inkscape:snap-global="false" />
  <metadata
     id="metadata5">
    <rdf:RDF>
      <cc:Work
         rdf:about="">
        <dc:format>image/svg+xml</dc:format>
        <dc:type
           rdf:resource="http://purl.org/dc/dcmitype/StillImage" />
        <dc:title />
      </cc:Work>
    </rdf:RDF>
  </metadata>
  <g
     inkscape:label="Calque 1"
     inkscape:groupmode="layer"
     id="layer1">
    <g
       id="g902"
       inkscape:export-xdpi="96"
       inkscape:export-ydpi="96">
      <rect
         style="fill:#000000;fill-opacity:1;fill-rule:evenodd;stroke-width:0.388036"
         id="rect898"
         width="105.83334"
         height="105.83334"
         x="-922.31317"
         y="-470.37973" />
      <path
         id="path895"
         style="fill:#ffffff;fill-opacity:1;fill-rule:evenodd;stroke-width:0.172898"
         d="m -856.16733,-417.46305 c 0,29.22508 -6.26613,39.78722 -13.22917,52.91666 -7.92291,-14.93939 -13.22916,-23.6916 -13.22916,-52.91666 0,-29.22506 5.23385,-37.84077 13.22916,-52.91667 7.80782,14.72235 13.22917,23.69159 13.22917,52.91667 z"
         sodipodi:nodetypes="scscs" />
    </g>
    <rect
       style="opacity:0.995;fill:#000000;fill-opacity:1;stroke:#ffffff;stroke-width:0.397633;stroke-miterlimit:4;stroke-dasharray:none;stroke-opacity:1"
       id="rect833"
       width="1113.8893"
       height="1113.8893"
       x="-316.11853"
       y="-286.31003" />
    <path
       id="circle869"
       style="opacity:0.995;fill:url(#radialGradient871);fill-opacity:1;stroke:none;stroke-width:1.42798"
       d="M 945.50195 850.70508 A 383.7006 383.7006 0 0 0 561.80273 1234.4062 A 383.7006 383.7006 0 0 0 945.50195 1618.1074 A 383.7006 383.7006 0 0 0 1329.2031 1234.4062 A 383.7006 383.7006 0 0 0 945.50195 850.70508 z M 945.2207 965.70508 A 268.70059 268.70059 0 0 1 945.50195 965.70508 A 268.70059 268.70059 0 0 1 1214.2031 1234.4062 A 268.70059 268.70059 0 0 1 945.50195 1503.1074 A 268.70059 268.70059 0 0 1 676.80273 1234.4062 A 268.70059 268.70059 0 0 1 945.2207 965.70508 z "
       transform="scale(0.26458333)" />
    <circle
       style="opacity:0.995;fill:url(#radialGradient875);fill-opacity:1;stroke:none;stroke-width:0.264583"
       id="circle873"
       cx="250.16431"
       cy="326.6033"
       r="71.093697" />
    <rect
       style="fill:#ff0000;fill-opacity:0.146258;stroke:none;stroke-width:9.14039;stroke-miterlimit:4;stroke-dasharray:none;stroke-opacity:0"
       id="rect917"
       width="105.83334"
       height="105.83334"
       x="-64.679222"
       y="86.862602" />
    <path
       id="path870"
       style="fill:#ffffff;fill-opacity:1;stroke:none;stroke-width:5.68187;stroke-miterlimit:4;stroke-dasharray:none;stroke-opacity:0;filter:url(#filter887)"
       d="m 97.524448,75.400759 a 52.916666,52.916666 0 0 0 -52.861889,52.916671 52.916666,52.916666 0 0 0 52.916666,52.91666 52.916666,52.916666 0 0 0 52.916665,-52.91666 52.916666,52.916666 0 0 0 -52.916665,-52.916671 52.916666,52.916666 0 0 0 -0.05478,0 z m 0.05478,5.612577 a 47.304007,47.304007 0 0 1 47.304082,47.304094 47.304007,47.304007 0 0 1 -47.304082,47.30408 47.304007,47.304007 0 0 1 -47.30357,-47.30408 47.304007,47.304007 0 0 1 47.30357,-47.304094 z"
       transform="matrix(0.88145787,0,0,0.88145787,-97.774525,26.672874)" />
    <rect
       style="fill:#ff0000;fill-opacity:0;stroke:none;stroke-width:9.14039;stroke-miterlimit:4;stroke-dasharray:none;stroke-opacity:0"
       id="rect917-6"
       width="105.83334"
       height="105.83334"
       x="43.300358"
       y="718.9577"
       inkscape:export-xdpi="96"
       inkscape:export-ydpi="96" />
    <path
       id="path870-2"
       style="fill:#ffffff;fill-opacity:1;stroke:none;stroke-width:5.68187;stroke-miterlimit:4;stroke-dasharray:none;stroke-opacity:0;filter:url(#filter887-8)"
       d="m 97.524448,75.400759 a 52.916666,52.916666 0 0 0 -52.861889,52.916671 52.916666,52.916666 0 0 0 52.916666,52.91666 52.916666,52.916666 0 0 0 52.916665,-52.91666 52.916666,52.916666 0 0 0 -52.916665,-52.916671 52.916666,52.916666 0 0 0 -0.05478,0 z m 0.05478,5.612577 a 47.304007,47.304007 0 0 1 47.304082,47.304094 47.304007,47.304007 0 0 1 -47.304082,47.30408 47.304007,47.304007 0 0 1 -47.30357,-47.30408 47.304007,47.304007 0 0 1 47.30357,-47.304094 z"
       transform="matrix(0.88145787,0,0,0.88145787,10.205055,658.76799)"
       inkscape:export-xdpi="96"
       inkscape:export-ydpi="96" />
    <g
       id="g1042"
       transform="matrix(0.6651628,0,0,0.6651628,166.30833,92.988297)"
       inkscape:export-xdpi="96"
       inkscape:export-ydpi="96">
      <circle
         style="fill:url(#radialGradient1044);fill-opacity:1;stroke:none;stroke-width:10.572;stroke-miterlimit:4;stroke-dasharray:none;stroke-opacity:0"
         id="path1005"
         cx="563.21997"
         cy="379.47308"
         r="79.554459" />
      <circle
         style="fill:url(#radialGradient1046);fill-opacity:1;stroke:none;stroke-width:10.572;stroke-miterlimit:4;stroke-dasharray:none;stroke-opacity:0"
         id="circle1028"
         cx="563.21997"
         cy="379.47308"
         r="79.554459" />
      <circle
         style="fill:url(#radialGradient1048);fill-opacity:1;stroke:none;stroke-width:10.572;stroke-miterlimit:4;stroke-dasharray:none;stroke-opacity:0"
         id="circle1030"
         cx="563.21997"
         cy="379.47308"
         r="79.554459" />
      <g
         id="g1035">
        <circle
           style="fill:url(#radialGradient1013);fill-opacity:1;stroke:none;stroke-width:10.572;stroke-miterlimit:4;stroke-dasharray:none;stroke-opacity:0"
           id="circle1032"
           cx="563.21997"
           cy="379.47308"
           r="79.554459" />
      </g>
    </g>
    <path
       sodipodi:type="spiral"
       style="fill:none;fill-rule:evenodd;stroke:#000000;stroke-width:0.264583"
       id="path1268"
       sodipodi:cx="405.25461"
       sodipodi:cy="-113.35262"
       sodipodi:expansion="1"
       sodipodi:revolution="5.6409798"
       sodipodi:radius="25.733706"
       sodipodi:argument="-37.736732"
       sodipodi:t0="0.99900001"
       d="m 387.58006,-132.02105 c 0.21476,-0.21515 0.43335,-0.42649 0.6556,-0.63388" />
    <g
       id="g1307">
      <path
         id="path1280"
         style="fill:#ff0000;fill-opacity:1;stroke:none;stroke-width:10.572;stroke-miterlimit:4;stroke-dasharray:none;stroke-opacity:0"
         d="m 380.29565,-177.44808 a 80.213278,80.213278 0 0 0 -80.11604,80.21319 80.213278,80.213278 0 0 0 35.07332,66.30603 80.213278,80.213278 0 0 1 -13.90666,-45.139363 80.213278,80.213278 0 0 1 80.2132,-80.213187 80.213278,80.213278 0 0 1 45.13988,13.90612 80.213278,80.213278 0 0 0 -66.30654,-35.07279 80.213278,80.213278 0 0 0 -0.0972,0 z" />
      <path
         id="path1293"
         style="fill:#ff0000;fill-opacity:1;stroke:none;stroke-width:10.572;stroke-miterlimit:4;stroke-dasharray:none;stroke-opacity:0"
         d="m 470.56606,-198.89566 a 80.213278,80.213278 0 0 0 -80.21318,-80.11603 80.213278,80.213278 0 0 0 -66.30602,35.07332 80.213278,80.213278 0 0 1 45.13935,-13.90667 80.213278,80.213278 0 0 1 80.21319,80.21321 80.213278,80.213278 0 0 1 -13.90613,45.13989 80.213278,80.213278 0 0 0 35.0728,-66.30655 80.213278,80.213278 0 0 0 -9e-5,-0.097 z"
         inkscape:transform-center-x="38.848186"
         inkscape:transform-center-y="-73.298499" />
      <path
         id="path1295"
         style="fill:#ff0000;fill-opacity:1;stroke:none;stroke-width:10.572;stroke-miterlimit:4;stroke-dasharray:none;stroke-opacity:0"
         d="m 492.01365,-108.62526 a 80.213278,80.213278 0 0 0 80.11603,-80.21317 80.213278,80.213278 0 0 0 -35.07333,-66.30603 80.213278,80.213278 0 0 1 13.90667,45.13935 80.213278,80.213278 0 0 1 -80.21321,80.2132 80.213278,80.213278 0 0 1 -45.1399,-13.90614 80.213278,80.213278 0 0 0 66.30656,35.0728 80.213278,80.213278 0 0 0 0.0969,-2e-5 z"
         inkscape:transform-center-x="-73.298484"
         inkscape:transform-center-y="-38.848195" />
      <path
         id="path1297"
         style="fill:#ff0000;fill-opacity:1;stroke:none;stroke-width:10.572;stroke-miterlimit:4;stroke-dasharray:none;stroke-opacity:0"
         d="m 401.74326,-87.177648 a 80.213278,80.213278 0 0 0 80.21318,80.1160276 80.213278,80.213278 0 0 0 66.30602,-35.0733256 80.213278,80.213278 0 0 1 -45.13937,13.906664 80.213278,80.213278 0 0 1 -80.21318,-80.213208 80.213278,80.213278 0 0 1 13.90614,-45.13991 80.213278,80.213278 0 0 0 -35.07281,66.306564 80.213278,80.213278 0 0 0 -7e-5,0.09684 z"
         inkscape:transform-center-x="-38.848164"
         inkscape:transform-center-y="73.298482" />
    </g>
    <circle
       style="fill:url(#radialGradient1315);fill-opacity:1;stroke:none;stroke-width:21.2768;stroke-miterlimit:4;stroke-dasharray:none;stroke-opacity:0"
       id="path1301"
       cx="436.15463"
       cy="-143.03665"
       r="64.572098" />
    <path
       sodipodi:type="spiral"
       style="fill:#ffffff;fill-opacity:1;fill-rule:evenodd;stroke:none;stroke-width:1.4;stroke-miterlimit:4;stroke-dasharray:none;stroke-opacity:1"
       id="path1325"
       sodipodi:cx="45.097626"
       sodipodi:cy="-74.211311"
       sodipodi:expansion="1.8"
       sodipodi:revolution="1.64"
       sodipodi:radius="146.87674"
       sodipodi:argument="-35.229897"
       sodipodi:t0="0.347"
       d="m 66.334608,-79.370892 c 12.602101,14.819682 3.213781,36.663002 -11.299193,46.063808 -26.987468,17.481181 -61.7778074,1.184461 -76.007009,-24.852537 -22.956569,-42.006589 2.131066,-92.817319 42.638241,-112.494279 59.773725,-29.03596 129.509933,6.63788 155.239033,64.41948 8.67962,19.492401 12.65679,40.942399 11.92503,62.248525" />
    <g
       id="g1345"
       transform="translate(-149.18492,160.74511)"
       inkscape:path-effect="#path-effect1351">
      <path
         style="fill:#ffffff;fill-opacity:1;fill-rule:evenodd;stroke:none;stroke-width:1.4;stroke-miterlimit:4;stroke-dasharray:none;stroke-opacity:1"
         id="rect1339"
         width="51.788658"
         height="207.15463"
         x="639.35059"
         y="-133.78041"
         sodipodi:type="rect"
         d="m 639.35058,-133.78041 c 17.27634,0.01 51.78866,0 51.78866,0 0.01,69.075354 0,207.154632 0,207.154632 -17.25634,0.01 -51.78866,0 -51.78866,0 0,-69.051544 0,-138.103088 0,-207.154632 z" />
      <path
         style="fill:#ffffff;fill-opacity:1;fill-rule:evenodd;stroke:none;stroke-width:1.4;stroke-miterlimit:4;stroke-dasharray:none;stroke-opacity:1"
         id="rect1341"
         width="51.788658"
         height="207.15463"
         x="-56.097424"
         y="-768.8222"
         transform="rotate(90)"
         sodipodi:type="rect"
         d="m -56.097423,-768.8222 c 17.276339,-0.01 51.788658,0 51.788658,0 0.01,69.05535 0,207.15463 0,207.15463 -17.256339,-0.01 -51.788658,0 -51.788658,0 0,-69.05154 0,-138.10309 0,-207.15463 z" />
    </g>
  </g>
</svg>
