<?xml version="1.0" encoding="UTF-8" standalone="no"?>
<svg
   xmlns:dc="http://purl.org/dc/elements/1.1/"
   xmlns:cc="http://creativecommons.org/ns#"
   xmlns:rdf="http://www.w3.org/1999/02/22-rdf-syntax-ns#"
   xmlns:svg="http://www.w3.org/2000/svg"
   xmlns="http://www.w3.org/2000/svg"
   xmlns:xlink="http://www.w3.org/1999/xlink"
   xmlns:sodipodi="http://sodipodi.sourceforge.net/DTD/sodipodi-0.dtd"
   xmlns:inkscape="http://www.inkscape.org/namespaces/inkscape"
   width="210mm"
   height="297mm"
   viewBox="0 0 210 297"
   version="1.1"
   id="svg8"
   inkscape:version="1.0.2-2 (e86c870879, 2021-01-15)"
   sodipodi:docname="ring_sandbox.svg"
   inkscape:export-filename="D:\programmation\unity\TheNetrunnerAwaken1ng\Assets\Textures\Particles\ring.png"
   inkscape:export-xdpi="96"
   inkscape:export-ydpi="96">
  <defs
     id="defs2">
    <linearGradient
       inkscape:collect="always"
       id="linearGradient882">
      <stop
         style="stop-color:#ffffff;stop-opacity:1"
         offset="0"
         id="stop878" />
      <stop
         style="stop-color:#ffffff;stop-opacity:0;"
         offset="1"
         id="stop880" />
    </linearGradient>
    <linearGradient
       inkscape:collect="always"
       id="linearGradient841">
      <stop
         style="stop-color:#000000;stop-opacity:0"
         offset="0"
         id="stop857" />
      <stop
         style="stop-color:#ffffff;stop-opacity:1"
         offset="1"
         id="stop859" />
    </linearGradient>
    <radialGradient
       inkscape:collect="always"
       xlink:href="#linearGradient882"
       id="radialGradient871"
       gradientUnits="userSpaceOnUse"
       cx="250.16428"
       cy="326.60336"
       fx="250.16428"
       fy="326.60336"
       r="71.093697"
       gradientTransform="matrix(5.517676,0,0,5.517676,-434.82263,-567.68508)" />
    <radialGradient
       inkscape:collect="always"
       xlink:href="#linearGradient841"
       id="radialGradient875"
       gradientUnits="userSpaceOnUse"
       cx="250.16428"
       cy="326.60336"
       fx="250.16428"
       fy="326.60336"
       r="71.093697"
       gradientTransform="translate(3.365236e-5,-6.2135521e-5)" />
    <filter
       inkscape:collect="always"
       style="color-interpolation-filters:sRGB"
       id="filter887"
       x="-0.038880001"
       width="1.07776"
       y="-0.038879999"
       height="1.07776">
      <feGaussianBlur
         inkscape:collect="always"
         stdDeviation="1.7145"
         id="feGaussianBlur889" />
    </filter>
  </defs>
  <sodipodi:namedview
     id="base"
     pagecolor="#ffffff"
     bordercolor="#666666"
     borderopacity="1.0"
     inkscape:pageopacity="0.0"
     inkscape:pageshadow="2"
     inkscape:zoom="0.98994949"
     inkscape:cx="383.30578"
     inkscape:cy="2937.1269"
     inkscape:document-units="mm"
     inkscape:current-layer="layer1"
     inkscape:document-rotation="0"
     showgrid="false"
     inkscape:window-width="1920"
     inkscape:window-height="1017"
     inkscape:window-x="-8"
     inkscape:window-y="-8"
     inkscape:window-maximized="1" />
  <metadata
     id="metadata5">
    <rdf:RDF>
      <cc:Work
         rdf:about="">
        <dc:format>image/svg+xml</dc:format>
        <dc:type
           rdf:resource="http://purl.org/dc/dcmitype/StillImage" />
        <dc:title />
      </cc:Work>
    </rdf:RDF>
  </metadata>
  <g
     inkscape:label="Calque 1"
     inkscape:groupmode="layer"
     id="layer1">
    <rect
       style="opacity:0.995;fill:#000000;fill-opacity:1;stroke-width:0.265;stroke-miterlimit:4;stroke-dasharray:none;stroke:#ffffff;stroke-opacity:1"
       id="rect833"
       width="742.34521"
       height="742.34521"
       x="-149.67857"
       y="-100.54166" />
    <path
       id="circle869"
       style="opacity:0.995;fill:url(#radialGradient871);fill-opacity:1;stroke:none;stroke-width:1.42798"
       d="M 945.50195 850.70508 A 383.7006 383.7006 0 0 0 561.80273 1234.4062 A 383.7006 383.7006 0 0 0 945.50195 1618.1074 A 383.7006 383.7006 0 0 0 1329.2031 1234.4062 A 383.7006 383.7006 0 0 0 945.50195 850.70508 z M 945.2207 965.70508 A 268.70059 268.70059 0 0 1 945.50195 965.70508 A 268.70059 268.70059 0 0 1 1214.2031 1234.4062 A 268.70059 268.70059 0 0 1 945.50195 1503.1074 A 268.70059 268.70059 0 0 1 676.80273 1234.4062 A 268.70059 268.70059 0 0 1 945.2207 965.70508 z "
       transform="scale(0.26458333)" />
    <circle
       style="opacity:0.995;fill:url(#radialGradient875);fill-opacity:1;stroke:none;stroke-width:0.264583"
       id="circle873"
       cx="250.16431"
       cy="326.6033"
       r="71.093697" />
    <rect
       style="fill:#ff0000;fill-opacity:0.146258;stroke:none;stroke-width:9.14039;stroke-miterlimit:4;stroke-dasharray:none;stroke-opacity:0"
       id="rect917"
       width="105.83334"
       height="105.83334"
       x="-64.679222"
       y="86.862602" />
    <path
       id="path870"
       style="fill:#ffffff;fill-opacity:1;stroke:none;stroke-width:5.68187;stroke-miterlimit:4;stroke-dasharray:none;stroke-opacity:0;filter:url(#filter887)"
       d="m 97.524448,75.400759 a 52.916666,52.916666 0 0 0 -52.861889,52.916671 52.916666,52.916666 0 0 0 52.916666,52.91666 52.916666,52.916666 0 0 0 52.916665,-52.91666 52.916666,52.916666 0 0 0 -52.916665,-52.916671 52.916666,52.916666 0 0 0 -0.05478,0 z m 0.05478,5.612577 a 47.304007,47.304007 0 0 1 47.304082,47.304094 47.304007,47.304007 0 0 1 -47.304082,47.30408 47.304007,47.304007 0 0 1 -47.30357,-47.30408 47.304007,47.304007 0 0 1 47.30357,-47.304094 z"
       transform="matrix(0.88145787,0,0,0.88145787,-97.774525,26.672874)" />
  </g>
</svg>
