<?xml version="1.0" encoding="UTF-8" standalone="no"?>
<!-- Created with Inkscape (http://www.inkscape.org/) -->

<svg
   xmlns:dc="http://purl.org/dc/elements/1.1/"
   xmlns:cc="http://creativecommons.org/ns#"
   xmlns:rdf="http://www.w3.org/1999/02/22-rdf-syntax-ns#"
   xmlns:svg="http://www.w3.org/2000/svg"
   xmlns="http://www.w3.org/2000/svg"
   xmlns:xlink="http://www.w3.org/1999/xlink"
   xmlns:sodipodi="http://sodipodi.sourceforge.net/DTD/sodipodi-0.dtd"
   xmlns:inkscape="http://www.inkscape.org/namespaces/inkscape"
   width="210mm"
   height="297mm"
   viewBox="0 0 210 297"
   version="1.1"
   id="svg8"
   inkscape:version="0.92.3 (2405546, 2018-03-11)"
   sodipodi:docname="all_pouvoirs_sandbox.svg">
  <defs
     id="defs2">
    <linearGradient
       inkscape:collect="always"
       xlink:href="#linearGradient6546"
       id="linearGradient6548"
       x1="13.988245"
       y1="104.98812"
       x2="119.05939"
       y2="105.02266"
       gradientUnits="userSpaceOnUse" />
    <linearGradient
       inkscape:collect="always"
       id="linearGradient6546">
      <stop
         style="stop-color:#00ffff;stop-opacity:1"
         offset="0"
         id="stop6542" />
      <stop
         style="stop-color:#ff0000;stop-opacity:1"
         offset="1"
         id="stop6544" />
    </linearGradient>
    <linearGradient
       inkscape:collect="always"
       xlink:href="#linearGradient6546"
       id="linearGradient6658"
       gradientUnits="userSpaceOnUse"
       x1="13.988245"
       y1="104.98812"
       x2="119.05939"
       y2="105.02266" />
    <linearGradient
       inkscape:collect="always"
       xlink:href="#linearGradient6546"
       id="linearGradient6660"
       gradientUnits="userSpaceOnUse"
       x1="13.988245"
       y1="104.98812"
       x2="119.05939"
       y2="105.02266" />
  </defs>
  <sodipodi:namedview
     id="base"
     pagecolor="#ffffff"
     bordercolor="#666666"
     borderopacity="1.0"
     inkscape:pageopacity="0.0"
     inkscape:pageshadow="2"
     inkscape:zoom="0.49497475"
     inkscape:cx="315.05547"
     inkscape:cy="-4.8691375"
     inkscape:document-units="mm"
     inkscape:current-layer="layer1"
     showgrid="false"
     inkscape:window-width="1920"
     inkscape:window-height="1017"
     inkscape:window-x="-8"
     inkscape:window-y="-8"
     inkscape:window-maximized="1"
     inkscape:snap-bbox="true"
     inkscape:snap-bbox-edge-midpoints="true"
     inkscape:snap-nodes="true" />
  <metadata
     id="metadata5">
    <rdf:RDF>
      <cc:Work
         rdf:about="">
        <dc:format>image/svg+xml</dc:format>
        <dc:type
           rdf:resource="http://purl.org/dc/dcmitype/StillImage" />
        <dc:title />
      </cc:Work>
    </rdf:RDF>
  </metadata>
  <g
     inkscape:label="Calque 1"
     inkscape:groupmode="layer"
     id="layer1">
    <rect
       y="27.502977"
       x="-10.96131"
       height="351.6806"
       width="154.97025"
       id="rect4520"
       style="fill:#000000;fill-opacity:1;stroke:none;stroke-width:0.58363098" />
    <rect
       style="fill:#ffffff;fill-opacity:1;stroke:none;stroke-width:0.26458332"
       id="rect4518"
       width="105.83334"
       height="105.83334"
       x="13.607142"
       y="52.07143" />
    <path
       style="fill:#000000;fill-opacity:1;stroke:none;stroke-width:0.20119034"
       d="m 66.106169,82.64163 c -0.795915,0.0085 -1.590797,0.05955 -2.381275,0.152843 11.296044,1.274237 35.125842,10.825727 35.132078,22.193417 -0.01323,11.41034 -23.911215,20.978 -35.25664,22.19343 0.831746,0.098 1.66835,0.14916 2.505845,0.15325 6.170872,5e-5 19.211459,-2.53753 27.872945,-6.54514 7.973848,-3.68943 21.203288,-15.65782 21.203288,-15.65782 0,0 -13.19387,-12.196625 -21.203433,-15.944984 -8.64392,-4.045227 -21.702004,-6.545045 -27.872808,-6.544996 z"
       id="path4522"
       inkscape:connector-curvature="0"
       sodipodi:nodetypes="cccccacac" />
    <path
       style="fill:#000000;fill-opacity:1;stroke:none;stroke-width:0.26458332"
       d="m -240.10934,110.09683 c 0.0112,1.04669 0.0783,2.09205 0.20101,3.13159 1.67574,-14.855315 14.23681,-46.193631 29.18635,-46.201819 15.0056,0.01742 27.58795,31.445384 29.18633,46.365619 0.12888,-1.09382 0.19616,-2.19402 0.20154,-3.2954 6e-5,-8.11526 -3.33708,-25.264788 -8.60744,-36.655418 -4.85194,-10.486317 -20.59145,-27.884226 -20.59145,-27.884226 0,0 -16.03965,17.351129 -20.96907,27.884411 -5.31984,11.367532 -8.60733,28.540073 -8.60727,36.655243 z"
       id="path4522-5"
       inkscape:connector-curvature="0"
       sodipodi:nodetypes="cccccacac" />
    <path
       sodipodi:nodetypes="cccccacac"
       inkscape:connector-curvature="0"
       id="path4542"
       d="m 19.092561,99.613053 c -1.621254,0.0021 -3.240407,0.01432 -4.850588,0.03676 23.0097,0.306496 71.550278,2.603937 71.562985,5.338237 -0.02718,2.74456 -48.706423,5.04589 -71.816713,5.33824 1.694242,0.0236 3.398381,0.0359 5.104329,0.0369 12.569883,2e-5 39.133165,-0.61035 56.776349,-1.57431 16.242489,-0.88743 43.190467,-3.76622 43.190467,-3.76622 0,0 -26.875529,-2.93368 -43.190765,-3.83529 -17.6074,-0.97301 -44.206322,-1.574293 -56.776064,-1.57428 z"
       style="fill:#000000;fill-opacity:1;stroke:none;stroke-width:0.1408271" />
    <rect
       style="fill:#ffffff;fill-opacity:1;stroke:none;stroke-width:0.26458332"
       id="rect4518-5"
       width="105.83334"
       height="105.83334"
       x="17.107944"
       y="232.858" />
    <g
       transform="translate(3.5008027,180.78658)"
       id="g6540"
       style="fill:url(#linearGradient6548);fill-opacity:1">
      <path
         sodipodi:nodetypes="cccccacac"
         inkscape:connector-curvature="0"
         id="path4522-56"
         d="m 66.106169,82.64163 c -0.795915,0.0085 -1.590797,0.05955 -2.381275,0.152843 11.296044,1.274237 35.125842,10.825727 35.132078,22.193417 -0.01323,11.41034 -23.911215,20.978 -35.25664,22.19343 0.831746,0.098 1.66835,0.14916 2.505845,0.15325 6.170872,5e-5 19.211459,-2.53753 27.872945,-6.54514 7.973848,-3.68943 21.203288,-15.65782 21.203288,-15.65782 0,0 -13.19387,-12.196625 -21.203433,-15.944984 -8.64392,-4.045227 -21.702004,-6.545045 -27.872808,-6.544996 z"
         style="fill:url(#linearGradient6658);fill-opacity:1;stroke:none;stroke-width:0.20119034" />
      <path
         style="fill:url(#linearGradient6660);fill-opacity:1;stroke:none;stroke-width:0.1408271"
         d="m 19.092561,99.613053 c -1.621254,0.0021 -3.240407,0.01432 -4.850588,0.03676 23.0097,0.306496 71.550278,2.603937 71.562985,5.338237 -0.02718,2.74456 -48.706423,5.04589 -71.816713,5.33824 1.694242,0.0236 3.398381,0.0359 5.104329,0.0369 12.569883,2e-5 39.133165,-0.61035 56.776349,-1.57431 16.242489,-0.88743 43.190467,-3.76622 43.190467,-3.76622 0,0 -26.875529,-2.93368 -43.190765,-3.83529 -17.6074,-0.97301 -44.206322,-1.574293 -56.776064,-1.57428 z"
         id="path4542-5"
         inkscape:connector-curvature="0"
         sodipodi:nodetypes="cccccacac" />
    </g>
  </g>
</svg>
