<?xml version="1.0" encoding="UTF-8" standalone="no"?>
<!-- Created with Inkscape (http://www.inkscape.org/) -->

<svg
   xmlns:dc="http://purl.org/dc/elements/1.1/"
   xmlns:cc="http://creativecommons.org/ns#"
   xmlns:rdf="http://www.w3.org/1999/02/22-rdf-syntax-ns#"
   xmlns:svg="http://www.w3.org/2000/svg"
   xmlns="http://www.w3.org/2000/svg"
   xmlns:sodipodi="http://sodipodi.sourceforge.net/DTD/sodipodi-0.dtd"
   xmlns:inkscape="http://www.inkscape.org/namespaces/inkscape"
   width="210mm"
   height="297mm"
   viewBox="0 0 210 297"
   version="1.1"
   id="svg8"
   inkscape:version="0.92.3 (2405546, 2018-03-11)"
   sodipodi:docname="eye_password.svg">
  <defs
     id="defs2" />
  <sodipodi:namedview
     id="base"
     pagecolor="#ffffff"
     bordercolor="#666666"
     borderopacity="1.0"
     inkscape:pageopacity="0.0"
     inkscape:pageshadow="2"
     inkscape:zoom="0.35355339"
     inkscape:cx="3239.6002"
     inkscape:cy="1279.6689"
     inkscape:document-units="mm"
     inkscape:current-layer="layer1"
     showgrid="false"
     inkscape:window-width="1920"
     inkscape:window-height="1017"
     inkscape:window-x="-8"
     inkscape:window-y="-8"
     inkscape:window-maximized="1"
     inkscape:snap-global="false"
     inkscape:snap-bbox="true" />
  <metadata
     id="metadata5">
    <rdf:RDF>
      <cc:Work
         rdf:about="">
        <dc:format>image/svg+xml</dc:format>
        <dc:type
           rdf:resource="http://purl.org/dc/dcmitype/StillImage" />
        <dc:title></dc:title>
      </cc:Work>
    </rdf:RDF>
  </metadata>
  <g
     inkscape:label="Calque 1"
     inkscape:groupmode="layer"
     id="layer1">
    <path
       inkscape:connector-curvature="0"
       id="path823"
       d="m -505.95967,-216.92896 a 173.85889,187.79552 0 0 0 -132.29099,66.02332 173.85889,187.79552 0 0 0 132.29099,66.268354 173.85889,187.79552 0 0 0 132.29234,-66.022594 173.85889,187.79552 0 0 0 -132.29234,-66.26908 z"
       style="opacity:1;fill:#000000;fill-opacity:1;stroke:none;stroke-width:4.78746414;stroke-miterlimit:4;stroke-dasharray:9.57492903, 19.14985812;stroke-dashoffset:0;stroke-opacity:1" />
    <g
       id="g832"
       transform="matrix(1.3229154,0,0,1.3229154,154.78348,26.847373)">
      <path
         inkscape:connector-curvature="0"
         id="path815"
         d="m -262.697,-183.14067 a 131.42089,141.95567 0 0 0 -99.99957,49.90755 131.42089,141.95567 0 0 0 99.99957,50.092545 131.42089,141.95567 0 0 0 100.00062,-49.907035 131.42089,141.95567 0 0 0 -100.00062,-50.09306 z m 0,7.50032 a 111.70789,120.66216 0 0 1 85.0005,42.57879 111.70789,120.66216 0 0 1 -85.0005,42.421185 111.70789,120.66216 0 0 1 -84.99947,-42.578795 111.70789,120.66216 0 0 1 84.99947,-42.42118 z"
         style="opacity:1;fill:#000000;fill-opacity:1;stroke:none;stroke-width:3.6188705;stroke-miterlimit:4;stroke-dasharray:7.23774154, 14.47548312;stroke-dashoffset:0;stroke-opacity:1" />
      <circle
         r="26.940769"
         cy="-133.14062"
         cx="-262.69647"
         id="path828"
         style="opacity:1;fill:#000000;fill-opacity:1;stroke:none;stroke-width:1.63121307;stroke-miterlimit:4;stroke-dasharray:3.26242618, 6.52485238;stroke-dashoffset:0;stroke-opacity:1" />
    </g>
    <path
       d="M 85.336422,304.56323 A 26.940769,26.940769 0 0 1 58.395653,331.504 l 0,-26.94077 z"
       sodipodi:end="1.5707963"
       sodipodi:start="0"
       sodipodi:ry="26.940769"
       sodipodi:rx="26.940769"
       sodipodi:cy="304.56323"
       sodipodi:cx="58.395653"
       sodipodi:type="arc"
       style="opacity:1;fill:#000000;fill-opacity:1;stroke:none;stroke-width:1.63121307;stroke-miterlimit:4;stroke-dasharray:3.26242618, 6.52485238;stroke-dashoffset:0;stroke-opacity:1"
       id="circle840"
       transform="scale(-1)" />
    <path
       style="opacity:1;fill:#000000;fill-opacity:1;stroke:none;stroke-width:1.63121295;stroke-miterlimit:4;stroke-dasharray:3.26242614, 6.5248523;stroke-dashoffset:0;stroke-opacity:1"
       d="m -18.728379,-304.56311 a 22.450641,22.450641 0 0 1 22.4508203,-22.45083 v -4.49016 a 26.940769,26.940769 0 0 0 -26.9409903,26.94099 z"
       id="path842"
       inkscape:connector-curvature="0" />
    <g
       id="g870"
       transform="matrix(1.3229154,0,0,1.3229154,160.10769,26.847373)">
      <path
         style="opacity:1;fill:#000000;fill-opacity:1;stroke:none;stroke-width:3.6188705;stroke-miterlimit:4;stroke-dasharray:7.23774154, 14.47548312;stroke-dashoffset:0;stroke-opacity:1"
         d="m -29.9587,-183.14067 a 131.42089,141.95567 0 0 0 -99.99957,49.90755 131.42089,141.95567 0 0 0 99.99957,50.092545 131.42089,141.95567 0 0 0 100.00062,-49.907035 131.42089,141.95567 0 0 0 -100.00062,-50.09306 z m 0,7.50032 a 111.70789,120.66216 0 0 1 85.0005,42.57879 111.70789,120.66216 0 0 1 -85.0005,42.421185 111.70789,120.66216 0 0 1 -84.99947,-42.578795 111.70789,120.66216 0 0 1 84.99947,-42.42118 z"
         id="path834"
         inkscape:connector-curvature="0" />
      <circle
         transform="rotate(90)"
         style="opacity:1;fill:#000000;fill-opacity:1;stroke:none;stroke-width:1.63121307;stroke-miterlimit:4;stroke-dasharray:3.26242618, 6.52485238;stroke-dashoffset:0;stroke-opacity:1"
         id="circle836"
         cx="-133.14062"
         cy="29.958172"
         r="26.940769" />
      <path
         style="opacity:1;fill:#ffffff;fill-opacity:1;stroke:none;stroke-width:1.71131241;stroke-miterlimit:4;stroke-dasharray:3.42262508, 6.84525017;stroke-dashoffset:0;stroke-opacity:1"
         d="m -53.511201,-133.1404 a 23.553063,23.553063 0 0 1 23.55325,-23.55326 v -4.71065 a 28.263675,28.263675 0 0 0 -28.263906,28.26391 z"
         id="path853"
         inkscape:connector-curvature="0" />
      <path
         inkscape:connector-curvature="0"
         id="path855"
         d="m 0.95909373,-124.67419 a 22.450641,22.450641 0 0 1 -22.45082073,22.45083 v 4.490169 A 26.940769,26.940769 0 0 0 5.4492637,-124.67419 Z"
         style="opacity:1;fill:#000000;fill-opacity:1;stroke:none;stroke-width:1.63121295;stroke-miterlimit:4;stroke-dasharray:3.26242614, 6.5248523;stroke-dashoffset:0;stroke-opacity:1" />
      <path
         style="opacity:1;fill:#ffffff;fill-opacity:1;stroke:none;stroke-width:1.2007575;stroke-miterlimit:4;stroke-dasharray:2.40151521, 4.80303044;stroke-dashoffset:0;stroke-opacity:1"
         d="m -13.431601,-133.1404 a 16.526215,16.526215 0 0 1 -16.52635,16.52636 v 3.30527 a 19.831458,19.831458 0 0 0 19.83163,-19.83163 z"
         id="path857"
         inkscape:connector-curvature="0" />
      <path
         inkscape:connector-curvature="0"
         id="path859"
         d="m -29.957951,-121.66208 a 11.478234,11.478234 0 0 1 -11.478334,-11.47832 h -2.295666 a 13.773881,13.773881 0 0 0 13.774,13.774 z"
         style="opacity:1;fill:#ffffff;fill-opacity:1;stroke:none;stroke-width:0.83398265;stroke-miterlimit:4;stroke-dasharray:1.66796548, 3.33593099;stroke-dashoffset:0;stroke-opacity:1" />
      <path
         style="opacity:1;fill:#ffffff;fill-opacity:1;stroke:none;stroke-width:1.00304198;stroke-miterlimit:4;stroke-dasharray:2.00608402, 4.01216806;stroke-dashoffset:0;stroke-opacity:1"
         d="m -29.957951,-146.94553 a 13.805023,13.805023 0 0 1 13.80515,13.80513 h 2.76102 a 16.566029,16.566029 0 0 0 -16.56617,-16.56618 z"
         id="path861"
         inkscape:connector-curvature="0" />
    </g>
    <g
       id="g951"
       transform="matrix(1.3229154,0,0,1.3229154,173.73946,26.847373)">
      <path
         inkscape:connector-curvature="0"
         id="path872"
         d="m 196.49984,-183.14067 a 131.42089,141.95567 0 0 0 -99.99957,49.90755 131.42089,141.95567 0 0 0 99.99957,50.092545 131.42089,141.95567 0 0 0 100.00062,-49.907035 131.42089,141.95567 0 0 0 -100.00062,-50.09306 z m 0,7.50032 a 111.70789,120.66216 0 0 1 85.0005,42.57879 111.70789,120.66216 0 0 1 -85.0005,42.421185 111.70789,120.66216 0 0 1 -84.99947,-42.578795 111.70789,120.66216 0 0 1 84.99947,-42.42118 z"
         style="opacity:1;fill:#000000;fill-opacity:1;stroke:none;stroke-width:3.6188705;stroke-miterlimit:4;stroke-dasharray:7.23774154, 14.47548312;stroke-dashoffset:0;stroke-opacity:1" />
      <path
         transform="scale(0.26458333)"
         id="circle874"
         d="m 742.67969,-605.03125 v 12.80273 a 89.019449,89.019449 0 0 0 -89.01953,89.02149 h -12.80469 a 101.82338,101.82338 0 0 0 101.82226,101.82226 101.82338,101.82338 0 0 0 101.82422,-101.82421 101.82338,101.82338 0 0 0 -101.82226,-101.82227 z m 0,39.21094 a 62.611762,62.611762 0 0 1 62.61133,62.61328 h 12.34179 a 74.953542,74.953542 0 0 1 -74.95312,74.95312 v -12.49218 a 62.461285,62.461285 0 0 0 62.46093,-62.46094 h -10.28515 a 52.176464,52.176464 0 0 0 -52.17578,-52.17774 z m -52.0586,62.61328 h 8.67579 a 43.382299,43.382299 0 0 0 43.38281,43.38281 v 8.67578 a 52.05876,52.05876 0 0 1 -52.0586,-52.05859 z"
         style="opacity:1;fill:#000000;fill-opacity:1;stroke:none;stroke-width:6.16521454;stroke-miterlimit:4;stroke-dasharray:12.33042966, 24.66085939;stroke-dashoffset:0;stroke-opacity:1"
         inkscape:connector-curvature="0" />
      <path
         style="opacity:1;fill:#000000;fill-opacity:1;stroke:none;stroke-width:1.63121295;stroke-miterlimit:4;stroke-dasharray:3.26242614, 6.5248523;stroke-dashoffset:0;stroke-opacity:1"
         d="m 227.41763,-124.67419 a 22.450641,22.450641 0 0 1 -22.45082,22.45083 v 4.490169 a 26.940769,26.940769 0 0 0 26.94099,-26.940999 z"
         id="path878"
         inkscape:connector-curvature="0" />
    </g>
    <g
       id="g1009"
       inkscape:export-xdpi="96"
       inkscape:export-ydpi="96">
      <path
         inkscape:connector-curvature="0"
         id="path969"
         d="M 442.6724,-26.69118 A 173.85889,187.79552 0 0 0 310.38141,39.33214 173.85889,187.79552 0 0 0 442.6724,105.6005 173.85889,187.79552 0 0 0 574.96474,39.5779 173.85889,187.79552 0 0 0 442.6724,-26.69118 Z"
         style="opacity:1;fill:#ffffff;fill-opacity:1;stroke:none;stroke-width:4.78746414;stroke-miterlimit:4;stroke-dasharray:9.57492903, 19.14985812000000109;stroke-dashoffset:0;stroke-opacity:1" />
      <g
         id="g959"
         transform="matrix(1.3229154,0,0,1.3229154,182.71972,215.58844)">
        <path
           inkscape:connector-curvature="0"
           id="path953"
           d="m 196.49984,-183.14067 a 131.42089,141.95567 0 0 0 -99.99957,49.90755 131.42089,141.95567 0 0 0 99.99957,50.092545 131.42089,141.95567 0 0 0 100.00062,-49.907035 131.42089,141.95567 0 0 0 -100.00062,-50.09306 z m 0,7.50032 a 111.70789,120.66216 0 0 1 85.0005,42.57879 111.70789,120.66216 0 0 1 -85.0005,42.421185 111.70789,120.66216 0 0 1 -84.99947,-42.578795 111.70789,120.66216 0 0 1 84.99947,-42.42118 z"
           style="opacity:1;fill:#000000;fill-opacity:1;stroke:none;stroke-width:3.6188705;stroke-miterlimit:4;stroke-dasharray:7.23774154, 14.47548312;stroke-dashoffset:0;stroke-opacity:1" />
        <path
           transform="scale(0.26458333)"
           id="path955"
           d="m 742.67969,-605.03125 v 12.80273 a 89.019449,89.019449 0 0 0 -89.01953,89.02149 h -12.80469 a 101.82338,101.82338 0 0 0 101.82226,101.82226 101.82338,101.82338 0 0 0 101.82422,-101.82421 101.82338,101.82338 0 0 0 -101.82226,-101.82227 z m 0,39.21094 a 62.611762,62.611762 0 0 1 62.61133,62.61328 h 12.34179 a 74.953542,74.953542 0 0 1 -74.95312,74.95312 v -12.49218 a 62.461285,62.461285 0 0 0 62.46093,-62.46094 h -10.28515 a 52.176464,52.176464 0 0 0 -52.17578,-52.17774 z m -52.0586,62.61328 h 8.67579 a 43.382299,43.382299 0 0 0 43.38281,43.38281 v 8.67578 a 52.05876,52.05876 0 0 1 -52.0586,-52.05859 z"
           style="opacity:1;fill:#000000;fill-opacity:1;stroke:none;stroke-width:6.16521454;stroke-miterlimit:4;stroke-dasharray:12.33042966, 24.66085939;stroke-dashoffset:0;stroke-opacity:1"
           inkscape:connector-curvature="0" />
        <path
           style="opacity:1;fill:#000000;fill-opacity:1;stroke:none;stroke-width:1.63121295;stroke-miterlimit:4;stroke-dasharray:3.26242614, 6.5248523;stroke-dashoffset:0;stroke-opacity:1"
           d="m 227.41763,-124.67419 a 22.450641,22.450641 0 0 1 -22.45082,22.45083 v 4.490169 a 26.940769,26.940769 0 0 0 26.94099,-26.940999 z"
           id="path957"
           inkscape:connector-curvature="0" />
      </g>
    </g>
    <g
       id="g923"
       transform="matrix(1.3229154,0,0,1.3229154,183.13821,22.834432)">
      <g
         transform="translate(229.65833)"
         id="g910">
        <path
           inkscape:connector-curvature="0"
           id="path904"
           d="m 196.49984,-183.14067 a 131.42089,141.95567 0 0 0 -99.99957,49.90755 131.42089,141.95567 0 0 0 99.99957,50.092545 131.42089,141.95567 0 0 0 100.00062,-49.907035 131.42089,141.95567 0 0 0 -100.00062,-50.09306 z m 0,7.50032 a 111.70789,120.66216 0 0 1 85.0005,42.57879 111.70789,120.66216 0 0 1 -85.0005,42.421185 111.70789,120.66216 0 0 1 -84.99947,-42.578795 111.70789,120.66216 0 0 1 84.99947,-42.42118 z"
           style="opacity:1;fill:#000000;fill-opacity:1;stroke:none;stroke-width:3.6188705;stroke-miterlimit:4;stroke-dasharray:7.23774154, 14.47548312;stroke-dashoffset:0;stroke-opacity:1" />
        <path
           inkscape:connector-curvature="0"
           transform="scale(0.26458333)"
           id="path906"
           d="m 742.67969,-605.03125 v 12.80273 a 89.019449,89.019449 0 0 0 -89.01953,89.02149 h -12.80469 a 101.82338,101.82338 0 0 0 101.82226,101.82226 101.82338,101.82338 0 0 0 101.82422,-101.82421 101.82338,101.82338 0 0 0 -101.82226,-101.82227 z m 0,39.21094 a 62.611762,62.611762 0 0 1 62.61133,62.61328 h 12.34179 a 74.953542,74.953542 0 0 1 -74.95312,74.95312 v -12.49218 a 62.461285,62.461285 0 0 0 62.46093,-62.46094 h -10.28515 a 52.176464,52.176464 0 0 0 -52.17578,-52.17774 z m -52.0586,62.61328 h 8.67579 a 43.382299,43.382299 0 0 0 43.38281,43.38281 v 8.67578 a 52.05876,52.05876 0 0 1 -52.0586,-52.05859 z"
           style="opacity:1;fill:#000000;fill-opacity:1;stroke:none;stroke-width:6.16521454;stroke-miterlimit:4;stroke-dasharray:12.33042966, 24.66085939;stroke-dashoffset:0;stroke-opacity:1" />
        <path
           style="opacity:1;fill:#000000;fill-opacity:1;stroke:none;stroke-width:1.63121295;stroke-miterlimit:4;stroke-dasharray:3.26242614, 6.5248523;stroke-dashoffset:0;stroke-opacity:1"
           d="m 227.41763,-124.67419 a 22.450641,22.450641 0 0 1 -22.45082,22.45083 v 4.490169 a 26.940769,26.940769 0 0 0 26.94099,-26.940999 z"
           id="path908"
           inkscape:connector-curvature="0" />
      </g>
      <rect
         transform="rotate(135)"
         ry="0"
         rx="0"
         y="-212.81757"
         x="-478.14716"
         height="11.244706"
         width="165.32581"
         id="rect916"
         style="opacity:1;fill:#000000;fill-opacity:1;stroke:none;stroke-width:2.10621381;stroke-miterlimit:4;stroke-dasharray:4.21242776, 8.42485554;stroke-dashoffset:0;stroke-opacity:1" />
    </g>
    <g
       transform="matrix(1.3229155,0,0,1.3229155,800.17407,22.834488)"
       id="g931"
       inkscape:export-xdpi="96"
       inkscape:export-ydpi="96">
      <path
         style="opacity:1;fill:#000000;fill-opacity:1;stroke:none;stroke-width:13.67762089;stroke-miterlimit:4;stroke-dasharray:27.35524362, 54.71048738;stroke-dashoffset:0;stroke-opacity:1"
         d="m 2687.7266,-739.15234 -68.4883,68.48828 a 496.70887,536.52536 0 0 1 44.0195,16.08398 l 54.5215,-54.52148 z m -24.4688,84.57226 -24.1836,24.1836 a 422.20304,456.04595 0 0 1 164.0196,127.48632 422.20304,456.04595 0 0 1 -321.2618,160.33204 422.20304,456.04595 0 0 1 -113.209,-17.36719 l -24.1933,24.19336 a 496.70887,536.52536 0 0 0 137.4023,21.51953 496.70887,536.52536 0 0 0 377.9551,-188.625 496.70887,536.52536 0 0 0 -196.5293,-151.72266 z m -318.8281,318.82813 a 496.70887,536.52536 0 0 1 -44.0176,-16.08594 l -54.5234,54.52344 30.0527,30.05078 z m -44.0176,-16.08594 24.1797,-24.17969 a 422.20304,456.04595 0 0 1 -164.0176,-127.48828 422.20304,456.04595 0 0 1 321.2578,-160.33203 422.20304,456.04595 0 0 1 113.2129,17.36719 l 24.1934,-24.19336 a 496.70887,536.52536 0 0 0 -137.4063,-21.52149 496.70887,536.52536 0 0 0 -377.9511,188.62696 496.70887,536.52536 0 0 0 196.5312,151.7207 z m 294.6328,-294.63281 -57.8379,57.83789 a 101.82338,101.82338 0 0 1 29.9981,30.10547 l 71.8691,-71.86914 a 422.20304,456.04595 0 0 0 -44.0293,-16.07422 z m -27.8398,87.94336 -28.75,28.75 a 62.611761,62.611761 0 0 1 5.9922,26.57031 h 12.3418 a 74.953541,74.953541 0 0 1 -74.9532,74.95312 v -12.49218 a 62.461284,62.461284 0 0 0 62.461,-62.46094 h -10.2852 a 52.176463,52.176463 0 0 0 -3.5019,-18.625 l -60.3887,60.38867 a 43.382298,43.382298 0 0 0 11.7148,1.61914 v 8.67578 a 52.058759,52.058759 0 0 1 -18.5351,-3.47461 l -36.8399,36.83985 a 101.82338,101.82338 0 0 0 55.3731,16.39843 101.82338,101.82338 0 0 0 101.8242,-101.82421 101.82338,101.82338 0 0 0 -16.4531,-55.31836 z m -140.7442,140.74414 a 101.82338,101.82338 0 0 1 -29.998,-30.10547 l -71.8711,71.87109 a 422.20304,456.04595 0 0 0 44.0312,16.07227 z m -29.998,-30.10547 36.7519,-36.75195 a 52.058759,52.058759 0 0 1 -3.4375,-18.56641 h 8.6758 a 43.382298,43.382298 0 0 0 1.6465,11.68164 l 60.3945,-60.39453 a 52.176463,52.176463 0 0 0 -18.6582,-3.46485 v -10.43554 a 62.611761,62.611761 0 0 1 26.5625,5.99609 l 28.8086,-28.80859 a 101.82338,101.82338 0 0 0 -55.3711,-16.39844 v 12.80273 a 89.019448,89.019448 0 0 0 -89.0195,89.02149 h -12.8047 a 101.82338,101.82338 0 0 0 16.4512,55.31836 z m 111.9355,-111.93555 -7.9043,7.9043 a 52.176463,52.176463 0 0 1 30.0157,30.08789 l 7.9453,-7.94531 a 62.611761,62.611761 0 0 0 -30.0567,-30.04688 z m -68.2988,68.29883 -6.8848,6.88477 a 52.058759,52.058759 0 0 0 30.086,30.01757 l 6.8203,-6.82031 a 43.382298,43.382298 0 0 1 -30.0215,-30.08203 z"
         transform="matrix(0.26458333,0,0,0.26458333,-460.15157,0)"
         id="path925"
         inkscape:connector-curvature="0" />
      <path
         style="opacity:1;fill:#000000;fill-opacity:1;stroke:none;stroke-width:1.63121295;stroke-miterlimit:4;stroke-dasharray:3.26242614, 6.5248523;stroke-dashoffset:0;stroke-opacity:1"
         d="m 227.41763,-124.67419 a 22.450641,22.450641 0 0 1 -22.45082,22.45083 v 4.490169 a 26.940769,26.940769 0 0 0 26.94099,-26.940999 z"
         id="path929"
         inkscape:connector-curvature="0" />
    </g>
    <rect
       style="opacity:1;fill:#ffffff;fill-opacity:1;stroke:#fd0000;stroke-width:14.08199978;stroke-miterlimit:4;stroke-dasharray:none;stroke-dashoffset:0;stroke-opacity:1"
       id="rect944"
       width="559.76929"
       height="279.88464"
       x="-911.49597"
       y="-686.33807" />
    <g
       id="g1036">
      <path
         style="opacity:1;fill:#ffffff;fill-opacity:1;stroke:none;stroke-width:4.78746414;stroke-miterlimit:4;stroke-dasharray:9.57492903, 19.14985812;stroke-dashoffset:0;stroke-opacity:1"
         d="m 1057.1333,-41.336499 a 173.85889,187.79552 0 0 0 -132.29097,66.02332 173.85889,187.79552 0 0 0 132.29097,66.26836 173.85889,187.79552 0 0 0 132.2924,-66.0226 173.85889,187.79552 0 0 0 -132.2924,-66.26908 z"
         id="path984"
         inkscape:connector-curvature="0" />
      <g
         transform="translate(-2.9934016,20.953936)"
         id="g989">
        <g
           inkscape:export-ydpi="96"
           inkscape:export-xdpi="96"
           id="g982"
           transform="matrix(1.3229155,0,0,1.3229155,800.17407,179.98897)">
          <path
             inkscape:connector-curvature="0"
             id="path978"
             transform="matrix(0.26458333,0,0,0.26458333,-460.15157,0)"
             d="m 2687.7266,-739.15234 -68.4883,68.48828 a 496.70887,536.52536 0 0 1 44.0195,16.08398 l 54.5215,-54.52148 z m -24.4688,84.57226 -24.1836,24.1836 a 422.20304,456.04595 0 0 1 164.0196,127.48632 422.20304,456.04595 0 0 1 -321.2618,160.33204 422.20304,456.04595 0 0 1 -113.209,-17.36719 l -24.1933,24.19336 a 496.70887,536.52536 0 0 0 137.4023,21.51953 496.70887,536.52536 0 0 0 377.9551,-188.625 496.70887,536.52536 0 0 0 -196.5293,-151.72266 z m -318.8281,318.82813 a 496.70887,536.52536 0 0 1 -44.0176,-16.08594 l -54.5234,54.52344 30.0527,30.05078 z m -44.0176,-16.08594 24.1797,-24.17969 a 422.20304,456.04595 0 0 1 -164.0176,-127.48828 422.20304,456.04595 0 0 1 321.2578,-160.33203 422.20304,456.04595 0 0 1 113.2129,17.36719 l 24.1934,-24.19336 a 496.70887,536.52536 0 0 0 -137.4063,-21.52149 496.70887,536.52536 0 0 0 -377.9511,188.62696 496.70887,536.52536 0 0 0 196.5312,151.7207 z m 294.6328,-294.63281 -57.8379,57.83789 a 101.82338,101.82338 0 0 1 29.9981,30.10547 l 71.8691,-71.86914 a 422.20304,456.04595 0 0 0 -44.0293,-16.07422 z m -27.8398,87.94336 -28.75,28.75 a 62.611761,62.611761 0 0 1 5.9922,26.57031 h 12.3418 a 74.953541,74.953541 0 0 1 -74.9532,74.95312 v -12.49218 a 62.461284,62.461284 0 0 0 62.461,-62.46094 h -10.2852 a 52.176463,52.176463 0 0 0 -3.5019,-18.625 l -60.3887,60.38867 a 43.382298,43.382298 0 0 0 11.7148,1.61914 v 8.67578 a 52.058759,52.058759 0 0 1 -18.5351,-3.47461 l -36.8399,36.83985 a 101.82338,101.82338 0 0 0 55.3731,16.39843 101.82338,101.82338 0 0 0 101.8242,-101.82421 101.82338,101.82338 0 0 0 -16.4531,-55.31836 z m -140.7442,140.74414 a 101.82338,101.82338 0 0 1 -29.998,-30.10547 l -71.8711,71.87109 a 422.20304,456.04595 0 0 0 44.0312,16.07227 z m -29.998,-30.10547 36.7519,-36.75195 a 52.058759,52.058759 0 0 1 -3.4375,-18.56641 h 8.6758 a 43.382298,43.382298 0 0 0 1.6465,11.68164 l 60.3945,-60.39453 a 52.176463,52.176463 0 0 0 -18.6582,-3.46485 v -10.43554 a 62.611761,62.611761 0 0 1 26.5625,5.99609 l 28.8086,-28.80859 a 101.82338,101.82338 0 0 0 -55.3711,-16.39844 v 12.80273 a 89.019448,89.019448 0 0 0 -89.0195,89.02149 h -12.8047 a 101.82338,101.82338 0 0 0 16.4512,55.31836 z m 111.9355,-111.93555 -7.9043,7.9043 a 52.176463,52.176463 0 0 1 30.0157,30.08789 l 7.9453,-7.94531 a 62.611761,62.611761 0 0 0 -30.0567,-30.04688 z m -68.2988,68.29883 -6.8848,6.88477 a 52.058759,52.058759 0 0 0 30.086,30.01757 l 6.8203,-6.82031 a 43.382298,43.382298 0 0 1 -30.0215,-30.08203 z"
             style="opacity:1;fill:#000000;fill-opacity:1;stroke:none;stroke-width:13.67762089;stroke-miterlimit:4;stroke-dasharray:27.35524362, 54.71048738;stroke-dashoffset:0;stroke-opacity:1" />
          <path
             inkscape:connector-curvature="0"
             id="path980"
             d="m 227.41763,-124.67419 a 22.450641,22.450641 0 0 1 -22.45082,22.45083 v 4.490169 a 26.940769,26.940769 0 0 0 26.94099,-26.940999 z"
             style="opacity:1;fill:#000000;fill-opacity:1;stroke:none;stroke-width:1.63121295;stroke-miterlimit:4;stroke-dasharray:3.26242614, 6.5248523;stroke-dashoffset:0;stroke-opacity:1" />
        </g>
      </g>
    </g>
    <g
       id="g1045"
       inkscape:export-xdpi="96"
       inkscape:export-ydpi="96">
      <path
         inkscape:connector-curvature="0"
         id="path1011"
         d="m 746.90939,-15.14436 a 173.85889,187.79552 0 0 0 -132.29095,66.02332 173.85889,187.79552 0 0 0 132.29095,66.26836 173.85889,187.79552 0 0 0 132.2924,-66.0226 173.85889,187.79552 0 0 0 -132.2924,-66.26908 z"
         style="opacity:1;fill:#ffffff;fill-opacity:1;stroke:none;stroke-width:4.78746414;stroke-miterlimit:4;stroke-dasharray:9.57492903, 19.14985812;stroke-dashoffset:0;stroke-opacity:1" />
      <g
         id="g1023"
         transform="matrix(1.3229154,0,0,1.3229154,183.13821,227.13526)">
        <g
           transform="translate(229.65833)"
           id="g1019">
          <path
             inkscape:connector-curvature="0"
             id="path1013"
             d="m 196.49984,-183.14067 a 131.42089,141.95567 0 0 0 -99.99957,49.90755 131.42089,141.95567 0 0 0 99.99957,50.092545 131.42089,141.95567 0 0 0 100.00062,-49.907035 131.42089,141.95567 0 0 0 -100.00062,-50.09306 z m 0,7.50032 a 111.70789,120.66216 0 0 1 85.0005,42.57879 111.70789,120.66216 0 0 1 -85.0005,42.421185 111.70789,120.66216 0 0 1 -84.99947,-42.578795 111.70789,120.66216 0 0 1 84.99947,-42.42118 z"
             style="opacity:1;fill:#000000;fill-opacity:1;stroke:none;stroke-width:3.6188705;stroke-miterlimit:4;stroke-dasharray:7.23774154, 14.47548312;stroke-dashoffset:0;stroke-opacity:1" />
          <path
             inkscape:connector-curvature="0"
             transform="scale(0.26458333)"
             id="path1015"
             d="m 742.67969,-605.03125 v 12.80273 a 89.019449,89.019449 0 0 0 -89.01953,89.02149 h -12.80469 a 101.82338,101.82338 0 0 0 101.82226,101.82226 101.82338,101.82338 0 0 0 101.82422,-101.82421 101.82338,101.82338 0 0 0 -101.82226,-101.82227 z m 0,39.21094 a 62.611762,62.611762 0 0 1 62.61133,62.61328 h 12.34179 a 74.953542,74.953542 0 0 1 -74.95312,74.95312 v -12.49218 a 62.461285,62.461285 0 0 0 62.46093,-62.46094 h -10.28515 a 52.176464,52.176464 0 0 0 -52.17578,-52.17774 z m -52.0586,62.61328 h 8.67579 a 43.382299,43.382299 0 0 0 43.38281,43.38281 v 8.67578 a 52.05876,52.05876 0 0 1 -52.0586,-52.05859 z"
             style="opacity:1;fill:#000000;fill-opacity:1;stroke:none;stroke-width:6.16521454;stroke-miterlimit:4;stroke-dasharray:12.33042966, 24.66085939;stroke-dashoffset:0;stroke-opacity:1" />
          <path
             style="opacity:1;fill:#000000;fill-opacity:1;stroke:none;stroke-width:1.63121295;stroke-miterlimit:4;stroke-dasharray:3.26242614, 6.5248523;stroke-dashoffset:0;stroke-opacity:1"
             d="m 227.41763,-124.67419 a 22.450641,22.450641 0 0 1 -22.45082,22.45083 v 4.490169 a 26.940769,26.940769 0 0 0 26.94099,-26.940999 z"
             id="path1017"
             inkscape:connector-curvature="0" />
        </g>
        <rect
           transform="rotate(135)"
           ry="0"
           rx="0"
           y="-212.81757"
           x="-478.14716"
           height="11.244706"
           width="165.32581"
           id="rect1021"
           style="opacity:1;fill:#000000;fill-opacity:1;stroke:none;stroke-width:2.10621381;stroke-miterlimit:4;stroke-dasharray:4.21242776, 8.42485554;stroke-dashoffset:0;stroke-opacity:1" />
      </g>
    </g>
  </g>
</svg>
