<?xml version="1.0" encoding="UTF-8" standalone="no"?>
<svg
   xmlns:dc="http://purl.org/dc/elements/1.1/"
   xmlns:cc="http://creativecommons.org/ns#"
   xmlns:rdf="http://www.w3.org/1999/02/22-rdf-syntax-ns#"
   xmlns:svg="http://www.w3.org/2000/svg"
   xmlns="http://www.w3.org/2000/svg"
   xmlns:xlink="http://www.w3.org/1999/xlink"
   xmlns:sodipodi="http://sodipodi.sourceforge.net/DTD/sodipodi-0.dtd"
   xmlns:inkscape="http://www.inkscape.org/namespaces/inkscape"
   width="210mm"
   height="297mm"
   viewBox="0 0 210 297"
   version="1.1"
   id="svg8"
   inkscape:version="1.0.2-2 (e86c870879, 2021-01-15)"
   sodipodi:docname="dash_sandbox.svg">
  <defs
     id="defs2">
    <linearGradient
       inkscape:collect="always"
       xlink:href="#linearGradient6546"
       id="linearGradient6548"
       x1="13.988245"
       y1="104.98812"
       x2="119.05939"
       y2="105.02266"
       gradientUnits="userSpaceOnUse" />
    <linearGradient
       inkscape:collect="always"
       id="linearGradient6546">
      <stop
         style="stop-color:#00ffff;stop-opacity:1"
         offset="0"
         id="stop6542" />
      <stop
         style="stop-color:#ff0000;stop-opacity:1"
         offset="1"
         id="stop6544" />
    </linearGradient>
    <linearGradient
       inkscape:collect="always"
       xlink:href="#linearGradient6546"
       id="linearGradient6658"
       gradientUnits="userSpaceOnUse"
       x1="13.988245"
       y1="104.98812"
       x2="119.05939"
       y2="105.02266" />
    <linearGradient
       inkscape:collect="always"
       xlink:href="#linearGradient6546"
       id="linearGradient6660"
       gradientUnits="userSpaceOnUse"
       x1="13.988245"
       y1="104.98812"
       x2="119.05939"
       y2="105.02266" />
    <linearGradient
       inkscape:collect="always"
       xlink:href="#linearGradient6546"
       id="linearGradient835"
       gradientUnits="userSpaceOnUse"
       x1="13.988245"
       y1="104.98812"
       x2="119.05939"
       y2="105.02266"
       gradientTransform="translate(5.1181121,306.95225)" />
    <linearGradient
       inkscape:collect="always"
       xlink:href="#linearGradient6546"
       id="linearGradient837"
       gradientUnits="userSpaceOnUse"
       x1="13.988245"
       y1="104.98812"
       x2="119.05939"
       y2="105.02266"
       gradientTransform="translate(1.9636988,306.68486)" />
    <linearGradient
       inkscape:collect="always"
       xlink:href="#linearGradient6546"
       id="linearGradient972"
       gradientUnits="userSpaceOnUse"
       x1="13.988245"
       y1="104.98812"
       x2="119.05939"
       y2="105.02266"
       gradientTransform="translate(5.0380475,306.92342)" />
    <linearGradient
       inkscape:collect="always"
       xlink:href="#linearGradient6546"
       id="linearGradient974"
       gradientUnits="userSpaceOnUse"
       x1="13.988245"
       y1="104.98812"
       x2="119.05939"
       y2="105.02266"
       gradientTransform="translate(5.0380459,306.92342)" />
    <linearGradient
       inkscape:collect="always"
       xlink:href="#linearGradient6546"
       id="linearGradient865"
       gradientUnits="userSpaceOnUse"
       x1="13.988245"
       y1="104.98812"
       x2="119.05939"
       y2="105.02266" />
    <linearGradient
       inkscape:collect="always"
       xlink:href="#linearGradient6546"
       id="linearGradient867"
       gradientUnits="userSpaceOnUse"
       x1="13.988245"
       y1="104.98812"
       x2="119.05939"
       y2="105.02266" />
    <linearGradient
       inkscape:collect="always"
       xlink:href="#linearGradient6546"
       id="linearGradient869"
       gradientUnits="userSpaceOnUse"
       x1="13.988245"
       y1="104.98812"
       x2="119.05939"
       y2="105.02266" />
    <linearGradient
       inkscape:collect="always"
       xlink:href="#linearGradient6546"
       id="linearGradient955"
       gradientUnits="userSpaceOnUse"
       x1="13.988245"
       y1="104.98812"
       x2="119.05939"
       y2="105.02266" />
    <linearGradient
       inkscape:collect="always"
       xlink:href="#linearGradient6546"
       id="linearGradient957"
       gradientUnits="userSpaceOnUse"
       x1="13.988245"
       y1="104.98812"
       x2="119.05939"
       y2="105.02266" />
    <linearGradient
       inkscape:collect="always"
       xlink:href="#linearGradient6546"
       id="linearGradient959"
       gradientUnits="userSpaceOnUse"
       x1="13.988245"
       y1="104.98812"
       x2="119.05939"
       y2="105.02266" />
    <linearGradient
       inkscape:collect="always"
       xlink:href="#linearGradient6546"
       id="linearGradient967"
       gradientUnits="userSpaceOnUse"
       x1="13.988245"
       y1="104.98812"
       x2="119.05939"
       y2="105.02266" />
    <linearGradient
       inkscape:collect="always"
       xlink:href="#linearGradient6546"
       id="linearGradient969"
       gradientUnits="userSpaceOnUse"
       x1="13.988245"
       y1="104.98812"
       x2="119.05939"
       y2="105.02266" />
    <linearGradient
       inkscape:collect="always"
       xlink:href="#linearGradient6546"
       id="linearGradient971"
       gradientUnits="userSpaceOnUse"
       x1="13.988245"
       y1="104.98812"
       x2="119.05939"
       y2="105.02266" />
  </defs>
  <sodipodi:namedview
     id="base"
     pagecolor="#ffffff"
     bordercolor="#666666"
     borderopacity="1.0"
     inkscape:pageopacity="0.0"
     inkscape:pageshadow="2"
     inkscape:zoom="0.49497476"
     inkscape:cx="568.69846"
     inkscape:cy="2075.4711"
     inkscape:document-units="mm"
     inkscape:current-layer="layer1"
     showgrid="false"
     inkscape:window-width="1920"
     inkscape:window-height="1017"
     inkscape:window-x="-8"
     inkscape:window-y="-8"
     inkscape:window-maximized="1"
     inkscape:snap-bbox="false"
     inkscape:snap-bbox-edge-midpoints="true"
     inkscape:snap-nodes="true"
     inkscape:snap-global="false"
     inkscape:document-rotation="0" />
  <metadata
     id="metadata5">
    <rdf:RDF>
      <cc:Work
         rdf:about="">
        <dc:format>image/svg+xml</dc:format>
        <dc:type
           rdf:resource="http://purl.org/dc/dcmitype/StillImage" />
        <dc:title />
      </cc:Work>
    </rdf:RDF>
  </metadata>
  <g
     inkscape:label="Calque 1"
     inkscape:groupmode="layer"
     id="layer1">
    <rect
       y="27.502977"
       x="-10.96131"
       height="795.88257"
       width="265.61984"
       id="rect4520"
       style="fill:#000000;fill-opacity:1;stroke:none;stroke-width:1.14946" />
    <rect
       style="fill:#ffffff;fill-opacity:1;stroke:none;stroke-width:0.26458332"
       id="rect4518"
       width="105.83334"
       height="105.83334"
       x="13.607142"
       y="52.07143" />
    <path
       style="fill:#000000;fill-opacity:1;stroke:none;stroke-width:0.20119034"
       d="m 66.106169,82.64163 c -0.795915,0.0085 -1.590797,0.05955 -2.381275,0.152843 11.296044,1.274237 35.125842,10.825727 35.132078,22.193417 -0.01323,11.41034 -23.911215,20.978 -35.25664,22.19343 0.831746,0.098 1.66835,0.14916 2.505845,0.15325 6.170872,5e-5 19.211459,-2.53753 27.872945,-6.54514 7.973848,-3.68943 21.203288,-15.65782 21.203288,-15.65782 0,0 -13.19387,-12.196625 -21.203433,-15.944984 -8.64392,-4.045227 -21.702004,-6.545045 -27.872808,-6.544996 z"
       id="path4522"
       inkscape:connector-curvature="0"
       sodipodi:nodetypes="cccccacac" />
    <path
       style="fill:#000000;fill-opacity:1;stroke:none;stroke-width:0.26458332"
       d="m -240.10934,110.09683 c 0.0112,1.04669 0.0783,2.09205 0.20101,3.13159 1.67574,-14.855315 14.23681,-46.193631 29.18635,-46.201819 15.0056,0.01742 27.58795,31.445384 29.18633,46.365619 0.12888,-1.09382 0.19616,-2.19402 0.20154,-3.2954 6e-5,-8.11526 -3.33708,-25.264788 -8.60744,-36.655418 -4.85194,-10.486317 -20.59145,-27.884226 -20.59145,-27.884226 0,0 -16.03965,17.351129 -20.96907,27.884411 -5.31984,11.367532 -8.60733,28.540073 -8.60727,36.655243 z"
       id="path4522-5"
       inkscape:connector-curvature="0"
       sodipodi:nodetypes="cccccacac" />
    <path
       sodipodi:nodetypes="cccccacac"
       inkscape:connector-curvature="0"
       id="path4542"
       d="m 19.092561,99.613053 c -1.621254,0.0021 -3.240407,0.01432 -4.850588,0.03676 23.0097,0.306496 71.550278,2.603937 71.562985,5.338237 -0.02718,2.74456 -48.706423,5.04589 -71.816713,5.33824 1.694242,0.0236 3.398381,0.0359 5.104329,0.0369 12.569883,2e-5 39.133165,-0.61035 56.776349,-1.57431 16.242489,-0.88743 43.190467,-3.76622 43.190467,-3.76622 0,0 -26.875529,-2.93368 -43.190765,-3.83529 -17.6074,-0.97301 -44.206322,-1.574293 -56.776064,-1.57428 z"
       style="fill:#000000;fill-opacity:1;stroke:none;stroke-width:0.1408271" />
    <rect
       style="fill:#ffffff;fill-opacity:1;stroke:none;stroke-width:0.26458332"
       id="rect4518-5"
       width="105.83334"
       height="105.83334"
       x="17.107944"
       y="232.858" />
    <g
       transform="translate(3.5008027,180.78658)"
       id="g6540"
       style="fill:url(#linearGradient6548);fill-opacity:1">
      <path
         sodipodi:nodetypes="cccccacac"
         inkscape:connector-curvature="0"
         id="path4522-56"
         d="m 66.106169,82.64163 c -0.795915,0.0085 -1.590797,0.05955 -2.381275,0.152843 11.296044,1.274237 35.125842,10.825727 35.132078,22.193417 -0.01323,11.41034 -23.911215,20.978 -35.25664,22.19343 0.831746,0.098 1.66835,0.14916 2.505845,0.15325 6.170872,5e-5 19.211459,-2.53753 27.872945,-6.54514 7.973848,-3.68943 21.203288,-15.65782 21.203288,-15.65782 0,0 -13.19387,-12.196625 -21.203433,-15.944984 -8.64392,-4.045227 -21.702004,-6.545045 -27.872808,-6.544996 z"
         style="fill:url(#linearGradient6658);fill-opacity:1;stroke:none;stroke-width:0.20119034" />
      <path
         style="fill:url(#linearGradient6660);fill-opacity:1;stroke:none;stroke-width:0.1408271"
         d="m 19.092561,99.613053 c -1.621254,0.0021 -3.240407,0.01432 -4.850588,0.03676 23.0097,0.306496 71.550278,2.603937 71.562985,5.338237 -0.02718,2.74456 -48.706423,5.04589 -71.816713,5.33824 1.694242,0.0236 3.398381,0.0359 5.104329,0.0369 12.569883,2e-5 39.133165,-0.61035 56.776349,-1.57431 16.242489,-0.88743 43.190467,-3.76622 43.190467,-3.76622 0,0 -26.875529,-2.93368 -43.190765,-3.83529 -17.6074,-0.97301 -44.206322,-1.574293 -56.776064,-1.57428 z"
         id="path4542-5"
         inkscape:connector-curvature="0"
         sodipodi:nodetypes="cccccacac" />
    </g>
    <g
       id="g1103">
      <rect
         inkscape:export-ydpi="96"
         inkscape:export-xdpi="96"
         style="fill:#ffffff;fill-opacity:1;stroke:none;stroke-width:0.26458332"
         id="rect827"
         width="105.83334"
         height="105.83334"
         x="17.107944"
         y="359.00922" />
      <g
         transform="translate(0,-2.6458334)"
         id="g1081">
        <path
           inkscape:connector-curvature="0"
           style="fill:url(#linearGradient835);fill-opacity:1;stroke:none;stroke-width:0.20119034"
           d="m 71.224429,389.59377 c -0.795915,0.008 -1.590773,0.0597 -2.38125,0.15296 8.01556,0.90418 22.339453,5.97654 29.9868,12.90775 l 4.261751,-4.26178 c -1.40943,-0.90043 -2.76339,-1.67743 -3.994585,-2.25359 -8.643919,-4.04524 -21.701911,-6.54539 -27.872716,-6.54534 z"
           id="path829" />
        <path
           inkscape:connector-curvature="0"
           style="fill:url(#linearGradient837);fill-opacity:1;stroke:none;stroke-width:0.1408271"
           d="m 21.056349,406.29795 c -1.621254,0.002 -3.240686,0.0142 -4.850866,0.0367 21.303973,0.28377 64.487896,2.2745 70.78431,4.73822 l 2.39003,-2.39004 c -4.08555,-0.3298 -8.061204,-0.61814 -11.547611,-0.81081 -17.607401,-0.97301 -44.206122,-1.57406 -56.775863,-1.57406 z m 64.263774,6.44456 c -10.119375,2.25237 -49.337516,4.01508 -69.368372,4.26847 1.694242,0.0236 3.39865,0.0362 5.104598,0.0372 12.569884,0 39.133195,-0.61064 56.776379,-1.57459 1.593588,-0.0871 3.310493,-0.19751 5.074625,-0.31832 z"
           id="path831" />
      </g>
      <g
         transform="translate(-3.7041668,5.2916669)"
         id="g1085">
        <path
           inkscape:connector-curvature="0"
           id="path4522-56-4"
           d="m 69.951506,389.60962 c -0.397017,0.0254 -0.793318,0.0619 -1.188556,0.10854 0.39524,-0.0466 0.791544,-0.083 1.188556,-0.10854 z m -1.188556,0.10854 c 0.313992,0.0354 0.641004,0.079 0.973582,0.1271 -0.33265,-0.0481 -0.659518,-0.0917 -0.973582,-0.1271 z m 1.267106,0.17155 c 0.256857,0.0393 0.519446,0.0822 0.785998,0.12867 -0.266769,-0.0465 -0.528934,-0.0893 -0.785998,-0.12867 z m 1.073319,0.17881 c 0.344856,0.0626 0.696749,0.13068 1.055751,0.20463 -0.35873,-0.0739 -0.711144,-0.14206 -1.055751,-0.20463 z m 1.336352,0.26458 c 0.289605,0.0614 0.583505,0.12637 0.881084,0.19481 -0.297733,-0.0685 -0.591328,-0.13337 -0.881084,-0.19481 z m 1.204061,0.26974 c 0.384731,0.0909 0.773941,0.18616 1.169956,0.28835 -0.396082,-0.10224 -0.785162,-0.19738 -1.169956,-0.28835 z m 1.322917,0.32917 c 0.335616,0.0875 0.675513,0.17957 1.018026,0.27493 -0.342707,-0.0954 -0.682223,-0.18732 -1.018026,-0.27493 z m 1.482598,0.40619 c 0.285199,0.0816 0.572399,0.1664 0.861446,0.25321 -0.289057,-0.0868 -0.576231,-0.17156 -0.861446,-0.25321 z m 1.233,0.36433 c 0.397359,0.12171 0.798502,0.24866 1.201476,0.37981 -0.402961,-0.13118 -0.80413,-0.25807 -1.201476,-0.37981 z m 1.586982,0.50745 c 0.31152,0.10329 0.62403,0.20963 0.937926,0.31832 -0.313917,-0.10872 -0.626385,-0.215 -0.937926,-0.31832 z m 1.340487,0.45786 c 0.401662,0.14163 0.804736,0.28699 1.208712,0.43717 -0.404177,-0.15031 -0.806849,-0.29544 -1.208712,-0.43717 z m 1.641761,0.60203 c 0.294799,0.11165 0.589494,0.225 0.884701,0.34105 -0.295201,-0.11607 -0.589908,-0.22937 -0.884701,-0.34105 z m 10.577647,0.41754 c 0.627145,0.20772 1.246489,0.42217 1.8557,0.64336 -0.609213,-0.22116 -1.228555,-0.43564 -1.8557,-0.64336 z m 1.8557,0.64336 c 0.609214,0.22122 1.207927,0.44897 1.79369,0.68318 -0.585623,-0.23413 -1.184627,-0.46204 -1.79369,-0.68318 z m -11.079426,-0.5338 c 0.307265,0.12317 0.61451,0.24945 0.921392,0.37722 -0.306985,-0.12785 -0.614021,-0.25397 -0.921392,-0.37722 z m 1.326536,0.54518 c 0.395454,0.16743 0.789519,0.33933 1.182872,0.51419 -0.3933,-0.17489 -0.787468,-0.34674 -1.182872,-0.51419 z m 1.690851,0.74364 c 0.246012,0.11168 0.491271,0.225 0.735873,0.33951 -0.244637,-0.11457 -0.489824,-0.22781 -0.735873,-0.33951 z M 97.34725,395.37 c 0.571971,0.24051 1.129422,0.48768 1.669667,0.74052 0.287094,0.13435 0.582009,0.28146 0.881599,0.43666 -0.299323,-0.15496 -0.594733,-0.30292 -0.881599,-0.43717 -0.540245,-0.25283 -1.097693,-0.4995 -1.669667,-0.74001 z m -9.414928,0.32554 c 0.373769,0.17926 0.745646,0.36161 1.114661,0.54727 -0.36897,-0.18566 -0.740937,-0.36798 -1.114661,-0.54727 z m 1.602486,0.79791 c 0.240118,0.12343 0.479256,0.24754 0.716751,0.37362 -0.237487,-0.1261 -0.476641,-0.25017 -0.716751,-0.37362 z m 10.602452,0.18087 c 0.22949,0.1216 0.46156,0.24749 0.69712,0.37981 -0.23563,-0.13227 -0.46756,-0.25824 -0.69712,-0.37981 z m -9.316743,0.49815 c 0.233269,0.12711 0.463854,0.25641 0.694015,0.38603 -0.230169,-0.12964 -0.460738,-0.25889 -0.694015,-0.38603 z m 10.256743,0.0191 c 0.25818,0.14767 0.51928,0.30052 0.78341,0.45943 -0.26415,-0.15883 -0.52522,-0.31187 -0.78341,-0.45943 z m 0.94774,0.55812 c 0.32545,0.19767 0.654,0.402 0.98651,0.61444 l -4.261759,4.26175 c 3.129859,2.83673 5.143609,5.98389 5.145419,9.28523 -0.0132,11.41034 -23.911336,20.97805 -35.256762,22.19346 0.831747,0.098 1.668296,0.14939 2.505792,0.15349 6.170872,5e-5 19.211232,-2.53773 27.872717,-6.54534 7.973843,-3.68943 21.203353,-15.65744 21.203353,-15.65744 0,0 -10.27533,-9.49751 -18.19527,-14.30559 z m -9.744624,0.24857 c 0.253386,0.14817 0.505786,0.29684 0.754478,0.44802 -0.248692,-0.15118 -0.501092,-0.29982 -0.754478,-0.44802 z m 1.26814,0.76584 c 0.216308,0.13517 0.430207,0.27186 0.64234,0.40928 -0.212212,-0.1375 -0.42595,-0.27403 -0.64234,-0.40928 z"
           style="fill:url(#linearGradient972);fill-opacity:1;stroke:none;stroke-width:0.20119034" />
        <path
           id="path4542-5-9"
           d="m 87.218594,408.51868 -1.406631,1.85209 c 3.15499,0.48929 5.028734,1.00626 5.031216,1.54048 -0.0066,0.66995 -2.926215,1.31355 -7.651213,1.90788 l -1.39733,1.84021 c 16.3152,-0.93904 42.302844,-3.71346 42.302844,-3.71346 0,0 -20.77136,-2.2666 -36.878886,-3.4272 z"
           style="fill:url(#linearGradient974);fill-opacity:1;stroke:none;stroke-width:0.1408271"
           inkscape:connector-curvature="0" />
      </g>
    </g>
    <rect
       style="fill:#ffffff;fill-opacity:1;stroke:none;stroke-width:0.264583"
       id="rect857"
       width="105.83334"
       height="105.83334"
       x="17.107944"
       y="486.85757" />
    <g
       id="g982"
       transform="translate(0,9.3405146)">
      <g
         transform="matrix(0.64,0,0,0.64,15.154979,445.85551)"
         id="g965"
         style="fill:url(#linearGradient971);fill-opacity:1">
        <path
           sodipodi:nodetypes="cccccacac"
           inkscape:connector-curvature="0"
           id="path961"
           d="m 66.106169,82.64163 c -0.795915,0.0085 -1.590797,0.05955 -2.381275,0.152843 11.296044,1.274237 35.125842,10.825727 35.132078,22.193417 -0.01323,11.41034 -23.911215,20.978 -35.25664,22.19343 0.831746,0.098 1.66835,0.14916 2.505845,0.15325 6.170872,5e-5 19.211459,-2.53753 27.872945,-6.54514 7.973848,-3.68943 21.203288,-15.65782 21.203288,-15.65782 0,0 -13.19387,-12.196625 -21.203433,-15.944984 -8.64392,-4.045227 -21.702004,-6.545045 -27.872808,-6.544996 z"
           style="fill:url(#linearGradient967);fill-opacity:1;stroke:none;stroke-width:0.20119" />
        <path
           style="fill:url(#linearGradient969);fill-opacity:1;stroke:none;stroke-width:0.140827"
           d="m 19.092561,99.613053 c -1.621254,0.0021 -3.240407,0.01432 -4.850588,0.03676 23.0097,0.306496 71.550278,2.603937 71.562985,5.338237 -0.02718,2.74456 -48.706423,5.04589 -71.816713,5.33824 1.694242,0.0236 3.398381,0.0359 5.104329,0.0369 12.569883,2e-5 39.133165,-0.61035 56.776349,-1.57431 16.242489,-0.88743 43.190467,-3.76622 43.190467,-3.76622 0,0 -26.875529,-2.93368 -43.190765,-3.83529 -17.6074,-0.97301 -44.206322,-1.574293 -56.776064,-1.57428 z"
           id="path963"
           inkscape:connector-curvature="0"
           sodipodi:nodetypes="cccccacac" />
      </g>
      <g
         transform="matrix(0.8,0,0,0.8,11.727445,441.08454)"
         id="g953"
         style="fill:url(#linearGradient959);fill-opacity:1">
        <path
           sodipodi:nodetypes="cccccacac"
           inkscape:connector-curvature="0"
           id="path949"
           d="m 66.106169,82.64163 c -0.795915,0.0085 -1.590797,0.05955 -2.381275,0.152843 11.296044,1.274237 35.125842,10.825727 35.132078,22.193417 -0.01323,11.41034 -23.911215,20.978 -35.25664,22.19343 0.831746,0.098 1.66835,0.14916 2.505845,0.15325 6.170872,5e-5 19.211459,-2.53753 27.872945,-6.54514 7.973848,-3.68943 21.203288,-15.65782 21.203288,-15.65782 0,0 -13.19387,-12.196625 -21.203433,-15.944984 -8.64392,-4.045227 -21.702004,-6.545045 -27.872808,-6.544996 z"
           style="fill:url(#linearGradient955);fill-opacity:1;stroke:none;stroke-width:0.20119" />
        <path
           style="fill:url(#linearGradient957);fill-opacity:1;stroke:none;stroke-width:0.140827"
           d="m 19.092561,99.613053 c -1.621254,0.0021 -3.240407,0.01432 -4.850588,0.03676 23.0097,0.306496 71.550278,2.603937 71.562985,5.338237 -0.02718,2.74456 -48.706423,5.04589 -71.816713,5.33824 1.694242,0.0236 3.398381,0.0359 5.104329,0.0369 12.569883,2e-5 39.133165,-0.61035 56.776349,-1.57431 16.242489,-0.88743 43.190467,-3.76622 43.190467,-3.76622 0,0 -26.875529,-2.93368 -43.190765,-3.83529 -17.6074,-0.97301 -44.206322,-1.574293 -56.776064,-1.57428 z"
           id="path951"
           inkscape:connector-curvature="0"
           sodipodi:nodetypes="cccccacac" />
      </g>
      <g
         transform="translate(3.5008027,434.78674)"
         id="g863"
         style="fill:url(#linearGradient869);fill-opacity:1">
        <path
           sodipodi:nodetypes="cccccacac"
           inkscape:connector-curvature="0"
           id="path859"
           d="m 66.106169,82.64163 c -0.795915,0.0085 -1.590797,0.05955 -2.381275,0.152843 11.296044,1.274237 35.125842,10.825727 35.132078,22.193417 -0.01323,11.41034 -23.911215,20.978 -35.25664,22.19343 0.831746,0.098 1.66835,0.14916 2.505845,0.15325 6.170872,5e-5 19.211459,-2.53753 27.872945,-6.54514 7.973848,-3.68943 21.203288,-15.65782 21.203288,-15.65782 0,0 -13.19387,-12.196625 -21.203433,-15.944984 -8.64392,-4.045227 -21.702004,-6.545045 -27.872808,-6.544996 z"
           style="fill:url(#linearGradient865);fill-opacity:1;stroke:none;stroke-width:0.20119" />
        <path
           style="fill:url(#linearGradient867);fill-opacity:1;stroke:none;stroke-width:0.140827"
           d="m 19.092561,99.613053 c -1.621254,0.0021 -3.240407,0.01432 -4.850588,0.03676 23.0097,0.306496 71.550278,2.603937 71.562985,5.338237 -0.02718,2.74456 -48.706423,5.04589 -71.816713,5.33824 1.694242,0.0236 3.398381,0.0359 5.104329,0.0369 12.569883,2e-5 39.133165,-0.61035 56.776349,-1.57431 16.242489,-0.88743 43.190467,-3.76622 43.190467,-3.76622 0,0 -26.875529,-2.93368 -43.190765,-3.83529 -17.6074,-0.97301 -44.206322,-1.574293 -56.776064,-1.57428 z"
           id="path861"
           inkscape:connector-curvature="0"
           sodipodi:nodetypes="cccccacac" />
      </g>
    </g>
  </g>
</svg>
